<?xml version="1.0" encoding="UTF-8"?>
<svg id="_图层_2" data-name="图层 2" xmlns="http://www.w3.org/2000/svg" viewBox="0 0 289.2 138.81">
  <defs>
    <style>
      .cls-1 {
        fill: #231815;
      }
    </style>
  </defs>
  <g id="_图层_1-2" data-name="图层 1">
    <path class="cls-1" d="M29.78,46.69c-6.34,12.1-13.19,23.92-20.52,35.45h4.32c-.12.33-.08.56.12.7,1.71-2.73-2.61-5.25-4.32-2.52-.88,1.4-.78,2.88-.12,4.34.82,1.81,3.4,1.44,4.32,0,7.33-11.52,14.18-23.35,20.52-35.45,1.49-2.85-2.82-5.38-4.32-2.52h0Z"/>
    <path class="cls-1" d="M28.29,63.59c4.57.33,9.2-1.44,12.48-4.61.94-.91.98-2.63,0-3.54s-2.53-.97-3.54,0c-.31.3-.78.57-1.04.91.08-.11.36-.27.09-.08-.09.07-.19.13-.28.2-.19.13-.38.26-.58.38-.39.24-.79.47-1.21.67-.2.1-.44.17-.63.29.12-.08.42-.17.12-.06-.14.05-.27.1-.4.15-.43.15-.88.29-1.32.4-.22.06-.45.11-.67.15-.11.02-.23.04-.34.06-.08.01-.48.07-.09.02s-.02,0-.1,0c-.11.01-.23.02-.34.03-.23.02-.46.03-.69.04-.49.02-.98,0-1.47-.03-1.31-.1-2.56,1.22-2.5,2.5.06,1.44,1.1,2.4,2.5,2.5h0Z"/>
    <path class="cls-1" d="M27.66,75.16c1.32-.66,2.64-1.32,3.96-1.97.64-.32,1.27-.63,1.91-.95.32-.16.64-.31.96-.47.18-.09.36-.18.55-.27-.16.1-.33.17-.51.19l-1.26-.34-.24-.19-.64-1.1c.06-.86.02-1.03-.11-.49-.06.19-.12.38-.18.57-.09.28-.18.57-.27.85-.21.66-.43,1.32-.65,1.98-.41,1.22-.83,2.44-1.28,3.64-.88,2.41-1.88,4.91-2.84,7.13l3.42-.9.82,1.88c.39-1.25-.46-2.78-1.75-3.08-1.36-.31-2.66.41-3.08,1.75-.47,1.51.24,2.91,1.48,3.77,1.02.7,2.91.28,3.42-.9,2.02-4.65,3.82-9.39,5.35-14.22.48-1.53,1-3.03-.18-4.41-1.26-1.47-3.13-.89-4.59-.17-2.28,1.12-4.56,2.25-6.83,3.39-1.17.59-1.6,2.34-.9,3.42.77,1.2,2.17,1.53,3.42.9h0Z"/>
    <path class="cls-1" d="M21.62,74.84c-1.27,4.29-2.13,8.68-2.62,13.13s-.76,8.83-.11,13.09c1.33,8.66,12.01,8.06,18.28,5.91,4.23-1.45,8.07-3.85,11.2-7.05,2.25-2.3-1.28-5.84-3.54-3.54-2.81,2.87-6.28,5-10.14,6.13-2.77.81-7.16,1.79-9.73-.12-1.37-1.02-1.28-2.99-1.33-4.54-.09-2.51-.03-5.03.15-7.54.36-4.8,1.28-9.53,2.65-14.14.92-3.09-3.91-4.41-4.82-1.33h0Z"/>
    <path class="cls-1" d="M49.07,72.98c.14,3.87.63,7.73,1.44,11.51.18.84.94,1.52,1.75,1.75s1.91.04,2.43-.64c.72-.93,1.06-1.82.76-2.99-.33-1.27-1.8-2.16-3.08-1.75s-2.1,1.72-1.75,3.08l-.02-.89.64-1.1-.09.12,4.18,1.1c-.19-.89-.37-1.79-.52-2.69-.07-.42-.14-.83-.2-1.25-.03-.21-.07-.42-.09-.62.07.62-.02-.15-.03-.27-.22-1.78-.36-3.56-.42-5.35-.05-1.31-1.12-2.56-2.5-2.5-1.31.06-2.55,1.1-2.5,2.5h0Z"/>
    <path class="cls-1" d="M54.73,57.4c1.23,1.31,1.77,3.03,2.17,4.75.48,2.09.78,4.22,1.02,6.35.53,4.72.69,9.47.85,14.21.16,4.98.32,9.95.42,14.93.05,2.41.07,4.82.08,7.22,0,1.16,0,2.33-.01,3.49,0,.29.02.64-.01.92,0-.06-.15.64-.16.64-.22-.12.5-.41.5-.38,0,.09-2.16-1-2.42-1.16-.87-.53-1.67-1.14-2.42-1.84-1.57-1.47-2.75-3.17-3.67-5.11-.58-1.22-2.33-1.54-3.42-.9-1.25.73-1.47,2.19-.9,3.42,1.98,4.21,5.51,7.81,9.76,9.75,2.5,1.14,5.56,1.21,7.02-1.55,1.18-2.24.74-5.33.73-7.76-.02-5.73-.17-11.46-.35-17.19s-.28-11.35-.82-17-.88-12.1-4.83-16.31c-2.21-2.35-5.74,1.19-3.54,3.54h0Z"/>
    <path class="cls-1" d="M98.56,40.5c-.13-.32-.15-.35-.08-.09-.04-.34-.05-.41-.04-.21,0,.23.02.46.02.69,0,.42,0,.83-.02,1.25-.02.48-.06.97-.11,1.45,0,.08-.09.79-.01.16-.03.24-.07.48-.11.72-.15.89-.35,1.77-.61,2.63-.13.43-.26.86-.41,1.29-.07.2-.14.39-.22.59-.04.1-.38.93-.14.37-.28.64-.45,1.22-.25,1.93.16.58.61,1.21,1.15,1.49,1.08.57,2.87.39,3.42-.9.9-2.09,1.6-4.22,1.95-6.48s.8-5.19-.23-7.41c-.55-1.19-2.36-1.58-3.42-.9-1.23.79-1.48,2.15-.9,3.42h0Z"/>
    <path class="cls-1" d="M86.53,57.77l-.21.02,1.26.34-.19-.12.9.9-.12-.21.34,1.26v-.24c-.12.42-.23.84-.35,1.26-.34.33-.28.34.17.04.26-.14.52-.27.79-.41.4-.2.79-.39,1.19-.58.87-.41,1.76-.78,2.66-1.13,1.93-.73,3.91-1.34,5.91-1.82,3.95-.94,8-1.34,12.06-1.2.65.02,2.1.36,2.63.17.2.16.31.19.33.07l-.45-1.29s-.81,1.22-.89,1.33c-1.01,1.39-2.22,2.65-3.51,3.79-2.59,2.29-5.67,3.97-8.97,4.98l1.93,4.57c2.15-1,4.36-1.89,6.61-2.65,1.15-.39,2.32-.75,3.49-1.08.5-.14,1.33-.2,1.77-.47-.22.02-.16.03.16.02-.25-.04-.48-.12-.69-.24l-.64-1.1-.04-.23c-.18,3.21,4.82,3.2,5,0,.11-1.96-1.57-3.21-3.35-3.39-1.55-.15-3.16.47-4.63.91-3.49,1.04-6.89,2.38-10.2,3.92-2.58,1.2-.75,5.39,1.93,4.57,3.9-1.19,7.46-3.15,10.59-5.76,1.49-1.25,2.83-2.65,4.02-4.18,1.43-1.82,3.24-4.11,1.93-6.5-1.12-2.05-3.62-2.24-5.69-2.37-2.21-.14-4.42-.12-6.63.06-4.48.35-8.93,1.25-13.17,2.77-2.38.86-4.88,1.82-7.05,3.13-1.13.68-1.95,1.67-1.91,3.05.04,1.52,1.45,2.99,3.02,2.81,1.34-.15,2.5-1.04,2.5-2.5,0-1.23-1.15-2.65-2.5-2.5h0Z"/>
    <path class="cls-1" d="M93.73,57.12c-1.91,9.27-4.89,18.28-8.52,27.01-1.78,4.28-3.73,8.5-5.77,12.66s-4.69,8.39-5.8,12.97c-.69,2.83,2.98,4.23,4.57,1.93.33-.48.67-.97,1-1.45.77-1.11.21-2.78-.9-3.42-1.24-.73-2.65-.22-3.42.9-.33.48-.67.97-1,1.45l4.57,1.93c1.08-4.45,3.72-8.52,5.7-12.61s4.04-8.63,5.87-13.03c3.63-8.73,6.61-17.74,8.52-27.01.27-1.32-.38-2.7-1.75-3.08-1.24-.34-2.8.42-3.08,1.75h0Z"/>
    <path class="cls-1" d="M105.48,70.23c-.23-.16-.45-.35-.59-.59l-.17-.4c.04.18.04.14,0-.12-.06-.45-.02-.16-.03-.05-.02.28.13-.58.04-.3-.02.05-.18.53-.16.55-.02-.02.27-.57.1-.25-.04.08-.08.16-.13.25-.42.82-.85,1.63-1.31,2.43s-.92,1.53-1.44,2.24c-.05.06-.27.36-.04.06s0,0-.05.05c-.15.18-.3.36-.45.53-.31.35-.64.68-.99,1-.97.89-.96,2.65,0,3.54,1.03.95,2.5.94,3.54,0,1.72-1.57,3.02-3.56,4.14-5.59.56-1.01,1.19-2.06,1.54-3.17.23-.75.26-1.52.12-2.28-.18-.95-.81-1.67-1.59-2.21-1.08-.74-2.82-.24-3.42.9-.67,1.27-.26,2.63.9,3.42h0Z"/>
    <path class="cls-1" d="M98.91,83.95l7.22-3.74c1.04-.54,2.21-1.2,3.03-1.48.25-.09.51-.17.77-.23.16-.04.33-.07.49-.1-.25.03-.22.04.09.01.25,0,.5-.01.75.02-.61-.09.67.3.16.07,1.18.55,2.75.37,3.42-.9.58-1.1.37-2.83-.9-3.42-1.66-.77-3.31-.93-5.1-.56-1.48.3-2.86,1.04-4.19,1.73-2.76,1.43-5.52,2.86-8.28,4.28-1.16.6-1.6,2.33-.9,3.42.76,1.19,2.18,1.54,3.42.9h0Z"/>
    <path class="cls-1" d="M109.02,90.55c1.84-.74,4.85-2.18,6.51-.5,1.45,1.47,1.62,4.16,1.76,6.12.22,3.01.11,6.06-.42,9.03-.14.8-.31,1.59-.5,2.38-.05.22-.16.47-.18.7-.06.67-.18.17,0,.17l.46-.22c.8.19,1.01.16.65-.1-.13-.24-.52-.45-.73-.65-.57-.53-1.12-1.09-1.64-1.67-2.17-2.39-5.7,1.16-3.54,3.54,1.34,1.48,3.17,3.62,5.28,3.78s3.59-1.33,4.26-3.24c.71-2.03.98-4.3,1.22-6.43s.31-4.27.21-6.4c-.18-3.56-.59-7.7-3.18-10.42-3.16-3.31-7.69-2.43-11.48-.9-1.25.51-2.13,1.67-1.75,3.08.33,1.19,1.82,2.25,3.08,1.75h0Z"/>
    <path class="cls-1" d="M101.69,76.84c-5.28,12.12-11.92,23.61-19.79,34.23-.8,1.09-.18,2.79.9,3.42,1.27.74,2.61.19,3.42-.9,7.87-10.62,14.51-22.11,19.79-34.23.54-1.24.36-2.68-.9-3.42-1.06-.62-2.88-.35-3.42.9h0Z"/>
    <path class="cls-1" d="M207.22,16.72c-2.65,3.66-6.92,6.15-10.49,8.81-4.19,3.13-8.34,6.3-12.46,9.51-8.16,6.35-16.2,12.87-24.1,19.55-4.5,3.8-8.95,7.66-13.36,11.56-.82.73-.93,2.12-.39,3.03.61,1.04,1.71,1.31,2.82,1.15,8.03-1.13,16.09-2.24,24.21-2.48,4.07-.12,8.16.11,12.16-.78s7.38-2.35,11.24-3,7.75-.82,11.62-1.12c4.11-.32,8.22-.62,12.34-.89,8.22-.53,16.46-.91,24.71-.96,9.21-.05,18.43.34,27.59,1.4,1.58.18,2.9-1.75,2.41-3.16-1.68-4.91-6.51-6.68-10.72-8.94-4.48-2.41-8.7-5.28-12.77-8.33-8.23-6.19-15.87-13.15-24.33-19.04-2.37-1.65-4.81-3.22-7.32-4.65-2.74-1.56-5.64-2.98-8.87-2.91s-3.22,5.06,0,5c2.47-.05,4.63,1.25,6.71,2.44s4.13,2.49,6.12,3.85c3.93,2.69,7.68,5.63,11.38,8.62,7.6,6.16,15.09,12.59,23.52,17.61,2.28,1.36,4.65,2.51,6.99,3.74,1.71.9,3.81,2,4.48,3.94l2.41-3.16c-16.46-1.9-33.06-1.61-49.57-.61-8.18.49-16.43.91-24.58,1.88-3.99.47-7.71,1.43-11.53,2.62-1.81.56-3.64,1.07-5.52,1.24-2,.18-4,.16-6.01.18-9.39.08-18.7,1.4-27.98,2.71l2.43,4.18c15.69-13.89,31.94-27.14,48.72-39.69,4.38-3.28,9.22-6.26,12.47-10.75.79-1.09.19-2.79-.9-3.42-1.26-.74-2.63-.2-3.42.9h0Z"/>
    <path class="cls-1" d="M148.86,69.27c.39,17.61-3.4,35.05-2.53,52.67.08,1.65,1.53,2.81,3.16,2.41,8.55-2.06,17.28-3.2,26.08-3.36,2.11-.04,4.22.1,6.32.04,2.54-.06,4.05-1.69,4.29-4.16.43-4.43.46-8.94.66-13.39.23-5.16.44-10.32.62-15.48l-3.16,2.41c7.87,1.75,15.91,1.17,23.89.75,8.23-.43,16.45-.86,24.68-1.29l-2.41-3.16c-2.45,8.19-3.69,16.78-3.57,25.34.03,1.93.08,4.02,1.22,5.67,1.25,1.81,3.32,2.42,5.43,2.39,4.38-.07,8.79-.43,13.16-.69s8.87-.55,13.31-.87c2.13-.15,4.34-.16,6.44-.55s3.47-1.69,4.26-3.57c1.62-3.89,1.83-8.4,1.98-12.56.16-4.51.31-9.02.54-13.53.51-10.09,1.29-20.16,2.31-30.2.14-1.35-1.25-2.5-2.5-2.5-1.47,0-2.36,1.15-2.5,2.5-.83,8.15-1.5,16.32-1.99,24.5-.24,4.05-.45,8.1-.61,12.15s-.14,8.04-.56,12.03c-.18,1.64-.49,3.28-.97,4.86-.1.34-.22,1.03-.51,1.3-.41.38-1.69.27-2.17.31-4.1.31-8.21.59-12.32.85s-7.89.48-11.83.68c-1.94.1-3.88.24-5.82.28-1.53.03-1.74-.21-1.81-1.74-.43-8.51.93-17.18,3.36-25.32.45-1.5-.8-3.25-2.41-3.16-8.06.42-16.12.85-24.18,1.27s-15.5,1.14-23.05-.54c-1.62-.36-3.1.73-3.16,2.41-.3,8.44-.66,16.88-1.09,25.31-.03.49-.05.98-.08,1.47-.02.38-.21,1.12-.08,1.47-.07-.19-.02.29,0,.31-.06-.06.74-.45.67-.54-.12-.14-1.11-.04-1.31-.04-2.07-.05-4.15-.04-6.22.02-4.06.11-8.12.43-12.15.95-4.73.61-9.42,1.45-14.06,2.57l3.16,2.41c-.88-17.62,2.92-35.06,2.53-52.67-.07-3.21-5.07-3.22-5,0h0Z"/>
    <path class="cls-1" d="M1.07,24.88c1.05,21.27,2.09,42.53,3.14,63.8.5,10.16,1.45,20.53,0,30.65-.64,4.47-2.41,9.65,1.61,13.1,2.94,2.53,6.98,2.99,10.71,3.18,21.32,1.07,42.66,1.86,64,2.39s42.52.8,63.79.81c21.27,0,42.53-.25,63.79-.77,21.26-.52,42.51-1.3,63.75-2.34,4.09-.2,8.92.06,12.54-2.2,1.83-1.14,3.18-2.89,3.67-5.01.56-2.39.38-4.98.43-7.42.18-10.55.39-21.11.55-31.66.32-20.94.39-42.02-2.24-62.83-.59-4.66-1.45-9.4-4.11-13.38-2.06-3.08-4.88-5.56-8.12-7.35-6.73-3.71-14.64-4.78-22.2-5.22-20.74-1.22-41.67-.63-62.35,1.26-5.07.46-10.12,1.02-15.17,1.65-1.34.17-2.5,1.03-2.5,2.5,0,1.22,1.15,2.67,2.5,2.5,20.27-2.55,40.71-3.71,61.14-3.44,5.12.07,10.24.21,15.35.47,3.52.18,7.03.49,10.49,1.16,6.34,1.23,13.22,3.66,16.82,9.4,2.39,3.81,2.93,8.39,3.43,12.77.57,5.05,1,10.12,1.32,15.2.64,10.24.81,20.5.79,30.76s-.24,20.39-.42,30.59c-.09,5.12-.18,10.24-.27,15.36-.02,1.24-.04,2.48-.06,3.72-.02,1.05.04,2.2-.35,3.2-.5,1.3-1.79,1.86-3.06,2.2-1.78.48-3.61.52-5.44.62-2.57.13-5.14.25-7.72.38-5.14.24-10.29.47-15.44.68-10.37.43-20.75.79-31.13,1.09-20.68.6-41.36.96-62.04,1.06s-41.37-.04-62.05-.43c-20.68-.39-41.36-1.03-62.02-1.92-5.15-.22-10.29-.46-15.43-.71-3.02-.15-7.37.04-9.63-2.02-1.22-1.11-1.04-2.83-.71-4.54.47-2.48.85-4.97,1.1-7.49.48-4.93.47-9.89.3-14.83-.69-20.59-1.99-41.19-3-61.77l-.75-15.2c-.16-3.2-5.16-3.22-5,0h0Z"/>
    <path class="cls-1" d="M175.92,2.37c-6.48,1.02-13.09,1.12-19.64,1.32s-13.12.33-19.69.43c-12.97.19-25.95.25-38.93.47-25.99.44-52.04,1.58-77.74,5.72-3.48.56-6.97,1.12-10.41,1.86-2.9.62-5.82,1.72-7.7,4.14-3.53,4.55-1.56,11.42,2.71,14.76,1.06.83,2.5,1.04,3.54,0,.87-.87,1.07-2.7,0-3.54-2.64-2.07-4.7-6.67-1.45-9,1.9-1.36,4.53-1.62,6.76-2.04,3.1-.58,6.21-1.11,9.32-1.6,12.3-1.93,24.71-3.13,37.13-3.92,24.91-1.59,49.88-1.49,74.83-1.83,6.97-.1,13.94-.22,20.9-.43s14.52-.39,21.69-1.52c1.33-.21,2.08-1.88,1.75-3.08-.39-1.42-1.74-1.96-3.08-1.75h0Z"/>
  </g>
</svg>