<?xml version="1.0" encoding="UTF-8"?>
<svg id="_图层_2" data-name="图层 2" xmlns="http://www.w3.org/2000/svg" viewBox="0 0 238.56 116.31">
  <defs>
    <style>
      .cls-1 {
        fill: #fff;
      }
    </style>
  </defs>
  <g id="_图层_1-2" data-name="图层 1">
    <path class="cls-1" d="M238.56,116.31l-3.14-.09-6.35-.2-6.9-.25-6.76-.23-6.91-.25-6.76-.23-6.95-.24-6.91-.25-6.76-.23-6.91-.25-6.76-.23-6.91-.25-6.76-.23-6.91-.25-6.76-.23-6.91-.25-6.76-.23-6.91-.25-6.76-.23-6.91-.25-6.95-.24-6.76-.23-6.91-.25-6.76-.23-6.91-.25-6.76-.23-6.91-.25-6.76-.23-6.91-.25-6.76-.23-6.91-.25-6.76-.23-6.91-.25-6.95-.24-6.35-.2L0,107.97V.03c1.23-.1,2.39.06,3.59.1l5.91.19,6.95.24,6.91.25,6.76.23,6.91.25,6.76.23,6.91.25,6.76.23,6.91.25,6.76.23,6.91.25,6.76.23,6.91.25,6.95.24,6.76.23,6.91.25,6.76.23,6.91.25,6.76.23,6.91.25,6.76.23,6.91.25,6.76.23,6.91.25,6.76.23,6.91.25,6.76.23,6.91.25,6.76.23,6.95.24,6.91.25,6.76.23,6.9.25,6.15.19,3.83.18v107.94Z"/>
  </g>
</svg>