<?xml version="1.0" encoding="UTF-8"?>
<svg id="_图层_2" data-name="图层 2" xmlns="http://www.w3.org/2000/svg" viewBox="0 0 238.56 147.55">
  <defs>
    <style>
      .cls-1 {
        fill: #fff;
      }
    </style>
  </defs>
  <g id="_图层_1-2" data-name="图层 1">
    <path class="cls-1" d="M85.55,141l-5.81-.25-5.52-.24-5.56-.23-5.71-.25-5.33-.23-5.94-.25-5.33-.23-5.71-.25-5.56-.23-5.71-.25-5.33-.23-5.94-.25-5.32-.23-5.7-.26-4.92-.16L0,137.22V3.12s12.38-.14,12.38-.14l18.41-.25,18.03-.23,18.41-.25,17.79-.23,18.41-.25,18.03-.23,18.41-.25,18.03-.23,18.41-.25,18.03-.23,18.42-.25,18-.23,7.8-.1v147.51c-.91.09-1.78.03-2.66-.12l-5.16-.16-5.7-.26-5.32-.23-5.94-.25-5.33-.23-5.71-.25-5.56-.23-5.71-.25-5.32-.23-5.71-.25-5.56-.23-5.71-.25-5.33-.23-5.94-.25-5.33-.23-5.71-.25-5.56-.23-5.71-.25-5.33-.23-5.94-.25-5.33-.23-5.71-.25-5.56-.23-5.71-.25-5.32-.23-5.71-.25-5.46-.23Z"/>
  </g>
</svg>