<?xml version="1.0" encoding="UTF-8"?>
<svg id="_图层_2" data-name="图层 2" xmlns="http://www.w3.org/2000/svg" viewBox="0 0 289.2 138.81">
  <defs>
    <style>
      .cls-1 {
        fill: #231815;
      }
    </style>
  </defs>
  <g id="_图层_1-2" data-name="图层 1">
    <g>
      <g>
        <path class="cls-1" d="M12.38,18.01c-2.79,5.32-4.44,11.09-4.93,17.08-.11,1.31,1.23,2.56,2.5,2.5,1.45-.06,2.39-1.1,2.5-2.5.2-2.46.65-4.9,1.4-7.48s1.62-4.74,2.85-7.08c.61-1.16.33-2.77-.9-3.42-1.15-.61-2.77-.34-3.42.9h0Z"/>
        <path class="cls-1" d="M29.35,23.54c2.51,2.11,4.93,4.33,7.23,6.67.92.93,2.63.99,3.54,0s.98-2.54,0-3.54c-2.31-2.33-4.72-4.56-7.23-6.67-.52-.44-1.07-.73-1.77-.73-.61,0-1.35.27-1.77.73s-.76,1.1-.73,1.77c.03.63.23,1.35.73,1.77h0Z"/>
        <path class="cls-1" d="M21.55,9.86c1.49,9.63,1.71,19.41,1.52,29.14s-1.16,19.33.89,28.81c.68,3.14,5.5,1.81,4.82-1.33-2.01-9.31-.85-19.03-.69-28.46s-.2-19.73-1.71-29.49c-.21-1.34-1.88-2.07-3.08-1.75-1.43.39-1.95,1.74-1.75,3.08h0Z"/>
        <path class="cls-1" d="M47.16,25.99c.12-.11.23-.22.36-.32.04-.04.51-.42.3-.26-.18.14.19-.14.23-.16.13-.09.26-.18.4-.27.57-.36,1.17-.69,1.79-.96-.32.14.04,0,.18-.06s.3-.11.45-.16c.3-.1.61-.19.92-.27.35-.09.7-.16,1.05-.23.19-.04.31-.05.05-.02.2-.03.4-.04.6-.06.68-.05,1.36-.06,2.04-.02.15,0,.97.11.52.04.35.05.71.12,1.06.2.66.15,1.31.35,1.93.61-.37-.15.36.19.49.25.18.09.35.19.52.29.07.04.14.08.21.12.26.17.16.06-.33-.34l-.34-1.26c-.02-.22.38-.82.06-.29-.12.21-.23.43-.35.64-.22.38-.46.75-.7,1.11-.47.69-.78,1.07-1.31,1.69-1.14,1.34-2.34,2.62-3.59,3.85-2.47,2.44-4.92,4.45-7.79,6.28-.94.6-1.45,1.73-1.15,2.82.27.97,1.34,1.96,2.41,1.84,2.42-.29,4.85-.58,7.27-.88,1.19-.14,2.37-.29,3.56-.43.51-.06,1.01-.14,1.52-.16.12,0,.24,0,.36,0,.19.01.16,0-.08-.02l.22.06c-.56-.4-.69-.44-.38-.14.92.99,2.61.93,3.54,0,.99-.99.92-2.54,0-3.54-1.97-2.14-5.25-1.2-7.76-.9-2.75.33-5.49.66-8.24.99l1.26,4.66c5.39-3.43,10.38-7.97,14.14-13.15,1.01-1.39,2.43-3.31,1.93-5.13s-2.59-2.6-4.13-3.22c-2.65-1.06-5.57-1.25-8.38-.84-3.12.46-6.04,1.89-8.35,4.03-.99.92-.93,2.61,0,3.54.99.99,2.54.92,3.54,0h0Z"/>
        <path class="cls-1" d="M53.15,13.41c-1.71,4.43-1.85,9.39-2.62,14.04s-1.74,9.24-3.06,13.75-2.9,8.75-4.99,12.86c-1.87,3.66-4,7.51-7.82,9.41-2.88,1.43-.35,5.75,2.52,4.32,6.64-3.3,10.03-11.37,12.6-17.88,2.82-7.14,4.54-14.66,5.74-22.23.69-4.3.87-8.84,2.44-12.93.49-1.26-.54-2.74-1.75-3.08-1.41-.39-2.59.48-3.08,1.75h0Z"/>
        <path class="cls-1" d="M53.2,53.09c1.43,3.19,2.87,6.4,4.74,9.37.98,1.56,2.09,3.06,3.31,4.44.6.68,1.24,1.38,2.07,1.76,1.35.62,2.88.58,3.97-.55.91-.94,1.01-2.61,0-3.54s-2.57-1.01-3.54,0l1.67-.42.24.11c-.2-.13-.23-.14-.08-.03.12.1.12.1.02,0-.21-.28-.51-.52-.74-.79-.22-.24-.43-.49-.64-.74-.13-.16-.26-.32-.39-.48-.26-.32.19.25-.06-.08-.88-1.18-1.68-2.42-2.41-3.7-1.45-2.54-2.66-5.22-3.85-7.89-.54-1.2-2.37-1.57-3.42-.9-1.24.8-1.47,2.14-.9,3.42h0Z"/>
        <path class="cls-1" d="M87.19,19c1.52,1.78,3.91,2.22,6.09,2.62,2.7.49,5.43.82,8.17.95,5.34.27,10.7-.22,15.92-1.33l-2.82-3.67c-.28.55-.58,1.06-1.09,1.43-1.09.79-1.63,2.17-.9,3.42.63,1.08,2.32,1.7,3.42.9,1.21-.88,2.2-1.88,2.88-3.22,1.02-1.99-.65-4.13-2.82-3.67-4.49.95-9.06,1.35-13.65,1.19-2.21-.07-4.43-.26-6.62-.61-1.51-.24-4-.3-5.05-1.53-.88-1.03-2.63-.9-3.54,0-1.02,1.02-.88,2.5,0,3.54h0Z"/>
        <path class="cls-1" d="M93.73,28.15c-.72,3.6-1.17,7.26-1.33,10.93-.08,1.77,2.23,3.29,3.76,2.16.15-.11.29-.22.44-.33.54-.4.96-.82,1.15-1.49.16-.6.09-1.4-.25-1.93-.67-1.04-2.3-1.73-3.42-.9-.15.11-.29.22-.44.33l3.76,2.16c.07-1.69.2-3.38.41-5.06.02-.2.05-.39.07-.59.02-.19.02-.13-.02.17.02-.13.04-.26.05-.39.06-.39.12-.79.18-1.18.14-.85.29-1.7.46-2.55.26-1.28-.37-2.76-1.75-3.08-1.24-.28-2.8.37-3.08,1.75h0Z"/>
        <path class="cls-1" d="M101.69,30.64c-.15.46.19-.35-.07.03.04-.05.47-.45.29-.31s.32-.18.38-.21c-.35.17.31-.09.35-.1.6-.15,1.68.03,2.54.24,1.14.28,2.27.6,3.4.9.54.14,1.09.28,1.63.43.1.03.69.1.3.07l.21.11c-.24-.15-.4-.36-.49-.64l.64-2.43c-1.2,1.54-2.64,2.55-4.35,3.26-1.9.8-4.32,1.28-6.47,1.72-1.32.27-2.09,1.84-1.75,3.08.39,1.44,1.73,1.94,3.08,1.75,3.17-.46,6.35-.92,9.52-1.38,1.59-.23,3.17-.46,4.76-.69.82-.12,1.63-.16,2.35-.62,1.16-.73,1.41-1.85,1.24-3.13s-1.9-2.07-3.08-1.75c-1.45.4-1.93,1.73-1.75,3.08l.02.17.25-1.93-.11.14.9-.9c.49-.28-.3-.01-.48.01l-1.02.15-2.04.3-3.91.57c-2.66.39-5.33.77-7.99,1.16l1.33,4.82c3.06-.62,6.13-1.31,8.89-2.83,1.24-.68,2.43-1.56,3.41-2.58.69-.73,1.46-1.56,1.46-2.62,0-.95-.53-1.86-1.2-2.49-1.16-1.08-2.88-1.33-4.36-1.73s-2.99-.87-4.51-1.11c-3.39-.53-7.04.56-8.18,4.13-.41,1.28.48,2.73,1.75,3.08,1.35.37,2.66-.46,3.08-1.75h0Z"/>
        <path class="cls-1" d="M107.41,14.71c.13,13.92-.4,27.83-1.59,41.7-.12,1.35,1.23,2.5,2.5,2.5,1.45,0,2.38-1.15,2.5-2.5,1.2-13.87,1.73-27.78,1.59-41.7-.03-3.22-5.03-3.22-5,0h0Z"/>
        <path class="cls-1" d="M103.38,39.44c-1.94,2.57-4.4,5.27-6.89,7.57-1.2,1.11-2.56,2.27-3.79,3.23-.57.44-1.31,1.01-1.99,1.44-.21.13-.41.25-.63.37-.03.01-.4.17-.19.09-.17.06-.36.12-.54.15.39-.06-.41-.07-.04,0-1.33-.25-2.7.37-3.08,1.75-.33,1.22.41,2.83,1.75,3.08,2.46.46,4.49-.51,6.43-1.94,1.71-1.26,3.37-2.6,4.95-4.02,3.08-2.77,5.83-5.87,8.32-9.17.81-1.08.17-2.8-.9-3.42-1.28-.75-2.61-.18-3.42.9h0Z"/>
        <path class="cls-1" d="M109.39,45.01c2,1.9,4.01,3.79,6.04,5.66.98.91,1.97,1.82,2.96,2.72,1.07.96,2.24,1.86,3.67,2.19,1.27.3,2.77-.4,3.08-1.75.29-1.28-.38-2.76-1.75-3.08-.12-.03-.23-.06-.35-.09-.44-.11.25.16.01,0-.2-.13-.42-.26-.62-.38-.29-.17.44.38,0,0-.09-.08-.19-.16-.28-.24-.2-.17-.39-.35-.58-.52-.98-.89-1.95-1.79-2.92-2.69-1.92-1.77-3.82-3.56-5.71-5.35-.95-.9-2.61-1.01-3.54,0s-1.01,2.57,0,3.54h0Z"/>
        <path class="cls-1" d="M90.8,21.99l.04-.03-.51.39.04-.02-.6.25h.04c-.22.02-.44.05-.66.08h.04c-.22-.03-.44-.06-.66-.09h.03c-.2-.07-.4-.16-.6-.24l.03.02-.51-.39s.04.04.06.06l-.39-.51c.04.06.07.11.1.18l-.25-.6c.02.05.03.1.04.16l-.09-.66c.04.3-.04.63-.06.93-.03.34-.06.69-.09,1.03-.06.69-.12,1.38-.19,2.06-.05.6.32,1.35.73,1.77s1.15.76,1.77.73,1.32-.24,1.77-.73l.39-.51c.23-.39.34-.81.34-1.26.09-1.03.19-2.06.28-3.1.02-.24.05-.49.07-.73.02-.28-.03-.59-.09-.87s-.19-.54-.31-.78-.3-.47-.48-.66c-.26-.27-.56-.45-.9-.6-.55-.23-1.12-.29-1.7-.14-.48.12-.83.39-1.21.7-.47.37-.73,1.2-.73,1.77,0,.61.27,1.35.73,1.77s1.1.76,1.77.73l.66-.09c.42-.12.79-.33,1.1-.64h0Z"/>
        <path class="cls-1" d="M86.83,35.37c.17.6,1.99,7.23,2.06,7.21.36-.73.34-.87-.08-.42-.21.16-.42.33-.63.5-.42.35-.81.74-1.18,1.15-.78.87-1.47,1.84-2.01,2.88-.38.74-.68,1.91-1.29,2.48-.5.46-1.14.14-1.78.01-2.18-.44-4.6-.53-6.21,1.3-1.32,1.5-.54,4.42,1.77,4.27,4.81-.32,9.01,2.06,12.87,4.68,4.15,2.82,8.13,5.85,12.34,8.57,8.45,5.47,17.43,10.2,26.96,13.47,5.43,1.86,11.01,3.15,16.7,3.9,1.34.18,2.5-1.28,2.5-2.5,0-1.5-1.16-2.32-2.5-2.5-9.78-1.29-19.24-4.67-28.02-9.1-4.51-2.28-8.88-4.84-13.12-7.58s-8.09-5.66-12.16-8.45c-4.59-3.14-9.84-5.86-15.57-5.48l1.77,4.27.21-.24c-.35.17-.4.21-.14.13-.14-.04.47-.04.32-.03.48-.02.93.13,1.4.23,1.56.32,3.1.46,4.58-.24,2.27-1.07,2.89-3.38,4.09-5.37,1.3-2.15,4.14-3.2,4.16-6,0-1.37-.61-2.82-.98-4.12l-1.24-4.33c-.88-3.09-5.71-1.78-4.82,1.33h0Z"/>
      </g>
      <path class="cls-1" d="M27.07,83.49c4.84-.92,9.73-1.55,14.65-1.88,4.42-.29,8.71-.39,12.35-3.23,1.07-.83.87-2.66,0-3.54-1.05-1.05-2.47-.83-3.54,0-1.21.94-2.93,1.28-4.4,1.46-2.11.26-4.25.28-6.37.45-4.7.39-9.39,1.03-14.02,1.91-1.33.25-2.08,1.85-1.75,3.08.38,1.39,1.74,2,3.08,1.75h0Z"/>
      <path class="cls-1" d="M38.94,66.31c-.05,9.1-5.85,16.49-9.99,24.13-1.17,2.17-1.28,5.14,1.54,6.07,2.16.71,4.89.18,7.07-.14,4.82-.7,9.61-1.61,14.41-2.42,1.33-.23,2.08-1.87,1.75-3.08-.39-1.41-1.74-1.97-3.08-1.75-3.28.55-6.55,1.11-9.83,1.66-1.53.26-3.05.54-4.58.76-.72.1-1.45.17-2.18.21-.4.02-.79.03-1.19.03h-.48c-.55-.03-.64-.04-.27-.05l.9.9c.15.22-.07.59.15.54.11-.03.39-.7.46-.81.31-.54.62-1.08.93-1.62.63-1.08,1.27-2.14,1.9-3.22,1.3-2.21,2.58-4.43,3.7-6.74,2.2-4.54,3.77-9.38,3.8-14.47.02-3.22-4.98-3.22-5,0h0Z"/>
      <path class="cls-1" d="M21.86,107.73c1.68,2.29,4.1,2.49,6.73,2.15,3.09-.4,6.18-.87,9.25-1.42,5.94-1.06,11.82-2.43,17.62-4.07,3.09-.87,1.78-5.7-1.33-4.82-5.03,1.42-10.12,2.64-15.25,3.63-2.53.49-5.06.92-7.61,1.3-1.18.18-2.37.36-3.56.49-.44.05-.91.11-1.35.06-.39-.04-.53-.31-.19.15-.8-1.09-2.17-1.63-3.42-.9-1.07.63-1.7,2.33-.9,3.42h0Z"/>
      <path class="cls-1" d="M44.04,86.41l-.36-.89c-.46-1.16-1.42-1.99-2.74-1.79-1.23.18-2.15,1.19-2.17,2.46-.13,10.97-.36,21.93-.68,32.9-.1,3.22,4.9,3.22,5,0,.32-10.96.55-21.93.68-32.9l-4.91.66.36.89c.5,1.25,1.67,2.13,3.08,1.75,1.19-.33,2.25-1.81,1.75-3.08h0Z"/>
      <path class="cls-1" d="M17.62,81.15c.34.27.64.58.91.92l-.39-.51c.32.43.57.89.79,1.38l-.25-.6c.44,1.05.66,2.18.81,3.3l-.09-.66c.06.45.11.89.15,1.34.07.68.23,1.27.73,1.77.43.43,1.15.76,1.77.73s1.32-.24,1.77-.73c.42-.46.8-1.12.73-1.77-.3-3.08-.8-6.64-3.39-8.71-.54-.43-1.05-.73-1.77-.73-.61,0-1.35.27-1.77.73s-.76,1.1-.73,1.77c.03.62.23,1.36.73,1.77h0Z"/>
      <path class="cls-1" d="M17.67,92.97c1.26,1.64.3,4.11.17,6-.19,2.81.7,5.5,1.08,8.25.08.6.12,1.21.12,1.81,0,.35-.17,1.21-.13,1.35-.1-.3.63-.06-.01-.09-.08,0-.27.02-.36.02-.71.04-1.44-.03-2.14-.06-3.07-.12-6.14-.28-9.21-.48l.66,4.91c1.6-.56,3.19.52,4.58,1.25,1.9,1,3.88,1.86,5.88,2.63,3.9,1.5,7.96,2.57,12,3.62s8.19,2.12,12.2,3.5,8,3.05,11.89,4.85c4.52,2.09,8.95,4.34,13.38,6.6.92.47,2.3.48,3.03-.39,1.36-1.64,1.79-3.85.51-5.71-.76-1.11-2.19-1.61-3.42-.9-1.1.64-1.67,2.3-.9,3.42.33.48,0-.02.27-.35l3.03-.39c-8.14-4.15-16.32-8.29-24.93-11.41s-17.06-4.4-25.32-7.5c-2.15-.81-4.16-1.83-6.21-2.87-2.28-1.15-4.8-2.05-7.33-1.17-2.68.93-2.19,4.72.66,4.91,3.65.24,7.34.52,11,.54,1.53,0,3.18-.3,4.29-1.45,1.28-1.33,1.57-3.28,1.55-5.05-.03-3.26-1.38-6.39-1.21-9.66.16-2.97,1.16-6.09-.84-8.71-.82-1.07-2.15-1.64-3.42-.9-1.05.62-1.72,2.34-.9,3.42h0Z"/>
      <path class="cls-1" d="M76.1,94.14c6.55-.57,12.1-4.01,18.28-5.88l-3.08-3.08.68-.86c-1.21.59-1.54,2.32-.9,3.42.73,1.24,2.2,1.49,3.42.9.8-.39,1.48-1.24,1.62-2.13s.04-1.75-.64-2.43c-.62-.62-1.58-.9-2.43-.64-5.64,1.7-11.2,5.2-16.95,5.7-1.35.12-2.5,1.06-2.5,2.5,0,1.26,1.15,2.62,2.5,2.5h0Z"/>
      <path class="cls-1" d="M82.2,102.71c5.14-.48,9.93-2.57,13.71-6.11.96-.9.97-2.64,0-3.54-1.03-.94-2.51-.96-3.54,0-.38.36-.78.7-1.18,1.03-.22.18-.08.11.04-.03-.08.09-.22.16-.32.23-.21.15-.43.3-.64.45-.9.6-1.84,1.12-2.83,1.57-.05.02-.45.21-.15.07s-.1.04-.15.06c-.24.1-.49.19-.73.28-.49.17-.99.33-1.5.47s-1.02.25-1.53.35c-.26.05-.52.09-.77.13-.36.06.45-.04.08-.01-.16.01-.33.03-.49.05-1.3.12-2.56,1.06-2.5,2.5.06,1.25,1.11,2.63,2.5,2.5h0Z"/>
      <path class="cls-1" d="M83.29,72.62c.85,9.42,2.73,18.74,3.16,28.2.21,4.61.09,9.27-.81,13.81-.11.54-.22,1.08-.35,1.61-.06.25-.48,1.19-.37,1.39.16.29-.09.11-.06.18,0,0,.83-.22.82-.23-.02-.11-.89-.5-1.02-.59-1.15-.79-2.05-1.88-2.72-3.1-1.57-2.83-1.78-6.33-.25-9.18s-2.79-5.36-4.32-2.52c-1.98,3.67-2.24,8.12-.75,12.02.75,1.96,1.82,3.77,3.29,5.27,1.55,1.58,3.94,3.4,6.27,3.01,2.87-.48,3.61-3.42,4.13-5.85.6-2.81.96-5.69,1.12-8.56.31-5.51-.14-11.03-.79-16.5-.75-6.33-1.78-12.62-2.35-18.97-.12-1.34-1.06-2.5-2.5-2.5-1.26,0-2.62,1.15-2.5,2.5h0Z"/>
      <path class="cls-1" d="M101.42,70.86c-.53,2.1-1.2,4.18-2.1,6.15-.55,1.19-1.21,2.34-.87,3.7.28,1.14,1.2,2,2.29,2.34,1.94.61,4.1-.31,5.89-1.03,2.14-.86,4.16-1.92,6.06-3.25l-3.03-3.93c-1.44,1.53-2.74,3.2-3.84,4.99s-2.11,4.03-.59,5.86c1.75,2.1,4.25.9,6.29.05s4.06-1.79,6.03-2.83l-3.42-3.42c-2.17,3.17-5.16,5.69-8.17,8.04-1.54,1.2-3.1,2.36-4.63,3.55s-3.83,2.6-3.66,4.91c.09,1.24,1.08,2.64,2.5,2.5,7.3-.72,13.8-4.33,20.98-5.55l-2.82-3.67c-.42.84-1.02,1.67-1.93,2.05-1.24.52-2.14,1.65-1.75,3.08.32,1.17,1.82,2.27,3.08,1.75,2.12-.89,3.86-2.25,4.91-4.35s-.66-4.04-2.82-3.67c-6.71,1.14-12.85,4.7-19.65,5.37l2.5,2.5c-.37.66-.37.79,0,.38.21-.17.41-.34.62-.51.31-.25.62-.5.94-.75.68-.53,1.36-1.05,2.04-1.57,1.5-1.14,3.01-2.28,4.48-3.47,2.92-2.36,5.57-4.95,7.69-8.05,1.5-2.18-1.36-4.51-3.42-3.42-1.31.69-2.64,1.35-4,1.96-1.22.55-2.57,1.27-3.9,1.46h1.33,0c.3.31.6.61.9.91.33.5-.02.82.45,0,.33-.57.67-1.12,1.04-1.66.7-1.03,1.49-1.97,2.35-2.88,1.86-1.98-.61-5.62-3.03-3.93-1.47,1.03-3.02,1.94-4.67,2.66-.72.31-1.47.58-2.22.81-.33.11-.88.14-1.17.33-.18.12.26-.18.6.25l.64,1.1c-.18.78-.19.96,0,.53.07-.13.13-.27.19-.4.16-.34.31-.68.46-1.02.32-.74.64-1.5.92-2.26.53-1.4.96-2.82,1.32-4.27.79-3.12-4.03-4.45-4.82-1.33h0Z"/>
      <path class="cls-1" d="M104.78,107.66c7.3-1.48,14.74-1.99,22.18-1.59,1.35.07,2.5-1.2,2.5-2.5,0-1.41-1.15-2.43-2.5-2.5-7.88-.42-15.78.2-23.51,1.77-1.32.27-2.09,1.84-1.75,3.08.38,1.38,1.75,2.02,3.08,1.75h0Z"/>
      <path class="cls-1" d="M112.18,93.69c-2.59,4.8-5.86,9.12-9.79,12.91-1.12,1.08-.91,3.19.51,3.93,7.95,4.13,15.61,8.8,22.94,13.96,1.1.78,2.78.2,3.42-.9.73-1.25.21-2.64-.9-3.42-7.33-5.16-14.99-9.82-22.94-13.96l.51,3.93c4.21-4.06,7.8-8.77,10.58-13.92,1.53-2.83-2.79-5.36-4.32-2.52h0Z"/>
      <path class="cls-1" d="M120.89,100.5c-2.44,5.2-7.14,8.58-11.99,11.35-5.54,3.16-11.36,5.84-16.08,10.23-2.36,2.2,1.18,5.73,3.54,3.54,9-8.36,23.24-10.61,28.86-22.6.57-1.22.34-2.7-.9-3.42-1.08-.63-2.85-.33-3.42.9h0Z"/>
      <g>
        <path class="cls-1" d="M178.68,69.3c-1.69.12-3.45-.63-5.05-1.1-1.73-.51-3.44-1.05-5.12-1.7-3.07-1.19-5.94-2.87-8.26-5.22-4.07-4.11-8-11.92-4.37-17.41,1.61-2.44,4.43-3.94,6.94-5.29,3.21-1.72,6.46-3.45,9.84-4.83,3.55-1.46,7.25-2.49,11.08-2.85s8.06-.41,12.09-.5c8.26-.19,16.53-.2,24.78.2,7.79.37,16,.65,23.44,3.23,5.7,1.98,11.99,6.38,12.99,12.79,1.05,6.74-6.48,11.03-11.52,13.56-6.65,3.33-13.99,5.35-21.17,7.19-7.62,1.95-15.45,3.35-23.35,2.84-1.89-.12-3.75-.37-5.6-.74-1.42-.28-3.36.68-3.16,2.41.25,2.23,1.83,3.44,4.05,3.08,1.33-.22,2.08-1.87,1.75-3.08-.39-1.41-1.74-1.97-3.08-1.75l-.25.04h1.33l.14.02.9.9-.14-.22.34,1.26-.03-.26-3.16,2.41c8.67,1.72,17.46,1,26.06-.8s16.68-4.08,24.49-7.42c6.65-2.84,14.76-7.17,17.01-14.61,2.37-7.86-3.49-15.51-9.82-19.45-7.15-4.45-15.81-5.31-24.02-5.95-9.14-.72-18.32-.87-27.49-.73-8.69.12-17.88-.26-26.21,2.59-4,1.37-7.8,3.24-11.54,5.2-3.19,1.66-6.51,3.33-9.07,5.92-5.94,6-4.31,15.19-.06,21.69,2.07,3.16,4.79,5.85,8,7.84,3.41,2.12,7.28,3.43,11.11,4.55,1.98.58,4.08,1.37,6.17,1.22,1.35-.1,2.5-1.08,2.5-2.5,0-1.28-1.15-2.6-2.5-2.5h0Z"/>
        <path class="cls-1" d="M246.37,51.67c-7.48-3.16-15.84-1.95-23.52-.24s-15.36,3.71-22.48,7.3c-6.61,3.33-12.7,7.79-17.87,13.08-2.6,2.66-5.53,5.67-6.07,9.51s1.2,7.05,3.63,9.73c2.56,2.83,5.9,5.09,9.11,7.13,3.44,2.19,7.14,3.92,11.05,5.1,3.84,1.16,7.81,1.82,11.78,2.36,4.27.58,8.56,1.17,12.86,1.5,8.56.66,17.33-.14,25.6-2.5,7.39-2.11,13.75-5.94,18.24-12.27,2.06-2.92,3.61-6.22,4.71-9.61,1.2-3.73,1.98-7.73,1.41-11.64-1.07-7.33-8.05-13-14.98-14.6-1.76-.41-3.59-.59-5.4-.54-3.21.09-3.22,5.09,0,5,5.91-.17,12.16,3,14.73,8.51,1.42,3.05.86,6.57.06,9.71-.75,2.94-1.86,5.76-3.39,8.38-3.29,5.63-8.27,9.45-14.42,11.54-7.17,2.43-14.86,3.41-22.41,3.24-3.94-.09-7.86-.54-11.76-1.03-3.56-.45-7.13-.89-10.65-1.61s-6.94-1.65-10.15-3.19c-3.41-1.63-6.61-3.74-9.6-6.05-2.09-1.62-4.48-3.66-5.3-6.27-.92-2.93,1.22-5.34,3.08-7.37,4.41-4.81,9.53-8.89,15.2-12.13,6.9-3.95,14.29-6.09,21.99-7.9s15.75-3.46,23.24-.3c1.24.53,2.75-.56,3.08-1.75.4-1.44-.5-2.55-1.75-3.08h0Z"/>
      </g>
    </g>
    <path class="cls-1" d="M1.07,24.88c1.05,21.27,2.09,42.53,3.14,63.8.5,10.16,1.45,20.53,0,30.65-.64,4.47-2.41,9.65,1.61,13.1,2.94,2.53,6.98,2.99,10.71,3.18,21.32,1.07,42.66,1.86,64,2.39s42.52.8,63.79.81c21.27,0,42.53-.25,63.79-.77,21.26-.52,42.51-1.3,63.75-2.34,4.09-.2,8.92.06,12.54-2.2,1.83-1.14,3.18-2.89,3.67-5.01.56-2.39.38-4.98.43-7.42.18-10.55.39-21.11.55-31.66.32-20.94.39-42.02-2.24-62.83-.59-4.66-1.45-9.4-4.11-13.38-2.06-3.08-4.88-5.56-8.12-7.35-6.73-3.71-14.64-4.78-22.2-5.22-20.74-1.22-41.67-.63-62.35,1.26-5.07.46-10.12,1.02-15.17,1.65-1.34.17-2.5,1.03-2.5,2.5,0,1.22,1.15,2.67,2.5,2.5,20.27-2.55,40.71-3.71,61.14-3.44,5.12.07,10.24.21,15.35.47,3.52.18,7.03.49,10.49,1.16,6.34,1.23,13.22,3.66,16.82,9.4,2.39,3.81,2.93,8.39,3.43,12.77.57,5.05,1,10.12,1.32,15.2.64,10.24.81,20.5.79,30.76s-.24,20.39-.42,30.59c-.09,5.12-.18,10.24-.27,15.36-.02,1.24-.04,2.48-.06,3.72-.02,1.05.04,2.2-.35,3.2-.5,1.3-1.79,1.86-3.06,2.2-1.78.48-3.61.52-5.44.62-2.57.13-5.14.25-7.72.38-5.14.24-10.29.47-15.44.68-10.37.43-20.75.79-31.13,1.09-20.68.6-41.36.96-62.04,1.06s-41.37-.04-62.05-.43c-20.68-.39-41.36-1.03-62.02-1.92-5.15-.22-10.29-.46-15.43-.71-3.02-.15-7.37.04-9.63-2.02-1.22-1.11-1.04-2.83-.71-4.54.47-2.48.85-4.97,1.1-7.49.48-4.93.47-9.89.3-14.83-.69-20.59-1.99-41.19-3-61.77l-.75-15.2c-.16-3.2-5.16-3.22-5,0h0Z"/>
    <path class="cls-1" d="M175.92,2.37c-6.48,1.02-13.09,1.12-19.64,1.32s-13.12.33-19.69.43c-12.97.19-25.95.25-38.93.47-25.99.44-52.04,1.58-77.74,5.72-3.48.56-6.97,1.12-10.41,1.86-2.9.62-5.82,1.72-7.7,4.14-3.53,4.55-1.56,11.42,2.71,14.76,1.06.83,2.5,1.04,3.54,0,.87-.87,1.07-2.7,0-3.54-2.64-2.07-4.7-6.67-1.45-9,1.9-1.36,4.53-1.62,6.76-2.04,3.1-.58,6.21-1.11,9.32-1.6,12.3-1.93,24.71-3.13,37.13-3.92,24.91-1.59,49.88-1.49,74.83-1.83,6.97-.1,13.94-.22,20.9-.43s14.52-.39,21.69-1.52c1.33-.21,2.08-1.88,1.75-3.08-.39-1.42-1.74-1.96-3.08-1.75h0Z"/>
  </g>
</svg>