<?xml version="1.0" encoding="UTF-8"?>
<svg id="_图层_2" data-name="图层 2" xmlns="http://www.w3.org/2000/svg" viewBox="0 0 238.56 123.53">
  <defs>
    <style>
      .cls-1 {
        fill: #fff;
      }
    </style>
  </defs>
  <g id="_图层_1-2" data-name="图层 1">
    <polygon class="cls-1" points="68.53 118.68 59.85 118.43 51.64 118.2 43.06 117.95 34.86 117.72 26.28 117.47 18.32 117.24 9.74 116.99 1.92 116.83 0 116.57 0 3.12 8.51 2.98 26.76 2.74 45.41 2.5 63.92 2.26 82.38 2.02 101.04 1.78 119.54 1.54 138.2 1.3 156.47 1.07 175.36 .82 193.63 .59 212.29 .34 230.77 .11 238.56 0 238.56 123.53 234.49 123.42 226.91 123.23 218.52 122.99 210.17 122.74 201.97 122.51 193.39 122.26 185.19 122.03 176.61 121.78 168.41 121.56 160.06 121.31 151.86 121.08 143.28 120.83 135.08 120.6 126.5 120.35 118.3 120.12 109.95 119.87 101.75 119.64 93.17 119.39 84.97 119.16 76.39 118.91 68.53 118.68"/>
  </g>
</svg>