<?xml version="1.0" encoding="UTF-8"?>
<svg id="_图层_2" data-name="图层 2" xmlns="http://www.w3.org/2000/svg" viewBox="0 0 238.56 132.71">
  <defs>
    <style>
      .cls-1 {
        fill: #fff;
      }
    </style>
  </defs>
  <g id="_图层_1-2" data-name="图层 1">
    <path class="cls-1" d="M81.28,128.28l-8.3-.24-8.82-.25-8.44-.23-8.59-.25-8.44-.23-8.82-.25-8.2-.23-8.82-.25-8.18-.23L0,125.97V2.65s14.06-.14,14.06-.14l21.76-.25,21.15-.23,21.77-.24,21.39-.23,21.77-.24,21.39-.23,21.77-.24,21.38-.23,21.77-.25,21.36-.24,9-.11v132.65c-1.39.12-2.73.06-4.07-.15l-7.83-.14-8.82-.25-8.2-.23-8.82-.25-8.2-.23-8.82-.25-8.44-.23-8.59-.25-8.44-.23-8.82-.25-8.2-.23-8.82-.25-8.44-.23-8.59-.25-8.44-.23-8.59-.25-8.44-.23-8.73-.24Z"/>
  </g>
</svg>