<?xml version="1.0" encoding="UTF-8"?>
<svg id="_图层_2" data-name="图层 2" xmlns="http://www.w3.org/2000/svg" viewBox="0 0 528.48 141.09">
  <defs>
    <style>
      .cls-1 {
        fill: #fff;
      }
    </style>
  </defs>
  <g id="_图层_1-2" data-name="图层 1">
    <path class="cls-1" d="M0,141.09V12.26c2.71-.03,5.38-.08,8.06-.14l10.5-.25,10.12-.23,10.51-.25,10.12-.23,10.51-.25,10.12-.23,10.51-.25,10.12-.23,10.51-.25,10.12-.23,10.51-.25,10.12-.23,10.51-.25,10.12-.23,10.51-.25,10.12-.23,10.75-.25,10.12-.23,10.51-.25,10.12-.23,10.51-.25,10.12-.23,10.51-.25,10.12-.23,10.51-.25,10.12-.23,10.51-.25,10.12-.23,10.51-.25,10.12-.23,10.51-.25,10.12-.23,10.51-.25,10.12-.23,10.51-.25,10.12-.23,10.51-.25,10.36-.23,10.51-.25,10.12-.23,10.51-.25,10.12-.23,10.51-.25,10.12-.23,10.51-.25,10.12-.23,10.51-.25,10.12-.23,10.51-.25,10.09-.22,4.2-.15v129.78s-11.65.21-11.65.21l-11.23.25-10.84.23-11.47.25-10.84.23-11.47.25-10.84.23-11.47.25-10.84.23-11.23.25-11.08.23-11.23.25-11.08.23-11.23.25-11.08.23-11.23.25-10.84.23-11.47.25-10.84.23-11.47.25-10.84.23-11.47.25-10.84.23-11.23.25-11.08.23-11.23.25-11.08.23-11.23.25-11.08.23-11.23.25-10.84.23-11.47.25-10.84.23-11.47.25-10.84.23-11.23.25-11.08.23-11.23.25-11.08.23-11.23.25-11.08.23-11.23.25-10.84.23-11.47.25-10.84.23-11.47.25-10.81.23L0,141.09Z"/>
  </g>
</svg>