<?xml version="1.0" encoding="UTF-8"?>
<svg id="_图层_2" data-name="图层 2" xmlns="http://www.w3.org/2000/svg" viewBox="0 0 232.62 92.44">
  <defs>
    <style>
      .cls-1 {
        fill: #231815;
      }
    </style>
  </defs>
  <g id="_图层_1-2" data-name="图层 1">
    <g>
      <path class="cls-1" d="M5.2,2.07c-.73,3.65-1.52,7.29-2.39,10.91-.45,1.88-.93,3.76-1.42,5.63C.92,20.37.07,22.32,0,24.15s1.15,3.5,2.99,3.98c1.57.41,3.26.12,4.8-.23,3.29-.75,6.31-2.46,8.72-4.81s-1.22-5.78-3.54-3.54c-1.68,1.63-3.71,2.78-5.97,3.39-.51.14-1.04.26-1.57.34-.22.03-1.15.1-1.13.03.21.09.34.26.37.54.11.53.22.66.34.39.1-.06.2-.73.24-.86.22-.79.43-1.58.65-2.37,1.56-5.83,2.93-11.7,4.1-17.62.26-1.32-.38-2.7-1.75-3.08-1.23-.34-2.81.42-3.08,1.75h0Z"/>
      <path class="cls-1" d="M18.13.33c-2.95,1.16-2.59,4.01-2.66,6.67s-.23,5.34-.47,8c-.46,5.32-1.21,10.62-2.06,15.89-1.74,10.75-3.86,21.45-5.03,32.29-.32,2.97-.56,5.95-.7,8.93s-.2,6.19.95,9.07c.63,1.58,2.09,2.25,3.67,1.49,1.95-.93,3.04-2.94,3.07-5.06.05-3.22-4.95-3.22-5,0,0,.45-.15.52-.6.74l3.67,1.49c-.88-2.21-.9-4.45-.81-6.8.1-2.59.28-5.19.53-7.77.47-5.01,1.19-10,2-14.97,1.63-10.05,3.59-20.05,4.78-30.17.33-2.8.6-5.62.78-8.44.09-1.41.16-2.83.2-4.24.02-.71.04-1.42.05-2.13,0-.28.06-.68,0-.95-.1-.48.26-.2-.2.21l-1.1.64.25-.1c1.26-.5,2.13-1.67,1.75-3.08-.33-1.2-1.81-2.24-3.08-1.75h0Z"/>
      <path class="cls-1" d="M33.52,2.81c-3.14,1.72-4.62,5.27-6.25,8.27-1.87,3.45-3.74,6.9-5.61,10.35-.64,1.19-.29,2.72.9,3.42s2.77.29,3.42-.9c1.76-3.25,3.52-6.49,5.28-9.74.82-1.51,1.6-3.04,2.47-4.52.18-.31.37-.62.57-.92.1-.15.2-.29.31-.44-.12.15-.08.12.11-.12.24-.26.47-.52.74-.74-.22.18.48-.29.58-.35,1.18-.65,1.57-2.28.9-3.42s-2.23-1.55-3.42-.9h0Z"/>
      <path class="cls-1" d="M32.73,17.36c1.1-.27,2.24.54,2.88,1.41.89,1.2.98,2.84.88,4.27-.27,3.69-2.19,7.25-3.84,10.49-1.85,3.61-3.86,7.14-6.04,10.56-2.06,3.24-4.15,6.57-7.17,9.02l3.93.51c-.38-.57-.6-1.05-.45-1.72.72-3.13-4.1-4.47-4.82-1.33-.44,1.94-.16,3.9.95,5.57.96,1.44,2.63,1.55,3.93.51,3.61-2.92,6.15-7.12,8.58-11.02,2.58-4.14,4.97-8.42,7.02-12.84,1.93-4.15,3.68-8.85,2.63-13.48-.99-4.35-5.23-7.88-9.8-6.77-3.13.76-1.8,5.58,1.33,4.82h0Z"/>
      <path class="cls-1" d="M20.42,30.71c1.36,2.87,3.59,5.2,5.62,7.6s4.04,4.97,5.92,7.57c3.82,5.28,7.25,10.84,10.29,16.61,1.5,2.85,5.82.32,4.32-2.52-3.04-5.77-6.47-11.32-10.29-16.61-1.9-2.63-3.9-5.21-5.97-7.71s-4.22-4.62-5.57-7.46c-.58-1.22-2.33-1.54-3.42-.9-1.25.73-1.48,2.2-.9,3.42h0Z"/>
      <path class="cls-1" d="M51.38,17.12c15.52-1.7,31.33,1.38,46.66-2.35,1.77-.43,2.49-2.93,1.1-4.18-1.06-.95-2.14-1.23-3.54-.97s-2.08,1.85-1.75,3.08c.38,1.39,1.74,1.99,3.08,1.75l.29-.05h-1.33l-.29-.26,1.1-4.18c-14.84,3.61-30.28.52-45.33,2.17-1.34.15-2.5,1.04-2.5,2.5,0,1.24,1.15,2.65,2.5,2.5h0Z"/>
      <path class="cls-1" d="M69.46,11.6c3.22,0,3.22-5,0-5s-3.22,5,0,5h0Z"/>
      <path class="cls-1" d="M83.65,5.01l.99-.15-3.16-2.41c.07,2.25-.37,4.41-.77,6.61-.42,2.35-.85,4.7-1.27,7.05-.83,4.62-1.66,9.23-2.5,13.85-.24,1.33.36,2.69,1.75,3.08,1.21.33,2.83-.41,3.08-1.75.86-4.78,1.72-9.56,2.58-14.33.42-2.35.85-4.7,1.27-7.05.44-2.46.94-4.94.86-7.46-.06-1.77-1.54-2.65-3.16-2.41l-.99.15c-1.34.2-2.07,1.89-1.75,3.08.39,1.43,1.73,1.95,3.08,1.75h0Z"/>
      <path class="cls-1" d="M53.22,29.04c-1.01,2.25-2.01,4.51-2.99,6.77-.49,1.13-.98,2.26-1.47,3.4-.38.89-.71,1.69-.44,2.68s1.11,1.77,2.1,2.07c1.08.33,2.35.17,3.47.08,1.28-.1,2.55-.28,3.81-.52,2.36-.46,4.61-1.25,6.79-2.24,1.19-.54,1.58-2.37.9-3.42-.79-1.23-2.14-1.48-3.42-.9-.09.04-.93.4-.43.19-.21.08-.42.17-.63.25-.49.19-.99.36-1.48.52-.93.3-1.88.54-2.84.74-.48.1-.97.17-1.45.26-.18.03-.15.02.1-.01-.15.02-.3.04-.45.05-.23.03-.45.05-.68.07-.53.05-1.06.08-1.59.1-.23,0-.46.01-.68.01-.13,0-.25,0-.38,0,.59,0,1.07.28,1.43.84l.34,1.26c.02.18-.27.78-.06.28.1-.23.2-.45.29-.68.2-.45.39-.91.59-1.36.38-.87.75-1.74,1.13-2.6.78-1.77,1.56-3.54,2.35-5.3.53-1.19.38-2.74-.9-3.42-1.09-.58-2.85-.38-3.42.9h0Z"/>
      <path class="cls-1" d="M46.42,59.41c4.47-.43,8.87-1.35,13.1-2.87,1.23-.44,2.18-1.72,1.75-3.08-.39-1.21-1.76-2.22-3.08-1.75-1.96.7-3.96,1.29-5.99,1.75-.98.22-1.97.41-2.97.58-.27.04-.54.09-.81.13-.12.02-.23.03-.35.05.28-.04.27-.04-.03,0-.54.07-1.08.13-1.62.18-1.3.13-2.56,1.06-2.5,2.5.06,1.25,1.11,2.64,2.5,2.5h0Z"/>
      <path class="cls-1" d="M53.02,51.62c-1.2,1.18-1.7,2.69-2.07,4.29-.42,1.77-.83,3.54-1.24,5.31-.85,3.62-1.69,7.25-2.54,10.87s-1.64,7.01-2.45,10.51c-.4,1.71-.9,3.76.95,4.85.97.57,2.35.39,3.15-.41.74-.74.82-1.69.68-2.67-.16-1.1-1.41-1.79-2.41-1.84h-.09c-3.22-.14-3.21,4.86,0,5h.09c-.8-.61-1.61-1.22-2.41-1.83l.02.12.25-1.93-.05.12,1.49-1.15-.12.02,2.43.64-.14-.15.64,1.1-.03-.22v1.33c.35-2.55,1.17-5.11,1.76-7.62.64-2.73,1.27-5.45,1.91-8.18s1.24-5.31,1.86-7.97c.3-1.29.6-2.58.9-3.86.21-.88.28-2.15.96-2.81,2.29-2.26-1.24-5.8-3.54-3.54h0Z"/>
      <path class="cls-1" d="M64.64,39.7c11.76-3.45,23.74-6.57,34.82-11.89,1.11-.53,1.49-2.07,1.02-3.12-.52-1.17-1.7-1.72-2.95-1.45-1.73.38-3.38,1.05-4.89,1.96-2.75,1.66-.24,5.99,2.52,4.32,1.17-.71,2.36-1.16,3.7-1.46l-1.93-4.57c-10.68,5.12-22.31,8.06-33.63,11.38-3.08.91-1.77,5.73,1.33,4.82h0Z"/>
      <path class="cls-1" d="M63.69,42.44c-.03,12.78-1.87,25.45-5.53,37.69-.93,3.09,3.9,4.41,4.82,1.33,3.79-12.64,5.68-25.83,5.71-39.02,0-3.22-4.99-3.22-5,0h0Z"/>
      <path class="cls-1" d="M73.61,48.43l9.85-5.24c1.16-.62,1.61-2.32.9-3.42-.76-1.18-2.18-1.56-3.42-.9l-9.85,5.24c-1.16.62-1.61,2.32-.9,3.42.76,1.18,2.18,1.56,3.42.9h0Z"/>
      <path class="cls-1" d="M72.74,43.34c-1.68,3.07-2.48,6.44-3.08,9.85-.64,3.64-1.25,7.28-1.87,10.92-.23,1.33.35,2.69,1.75,3.08,1.2.33,2.85-.41,3.08-1.75.6-3.52,1.2-7.05,1.81-10.57.54-3.08,1.12-6.24,2.64-9.01s-2.77-5.35-4.32-2.52h0Z"/>
      <path class="cls-1" d="M77.53,52.96c1.13-1.44,2.44-2.7,4.02-3.65.3-.18.7-.46.99-.58.3-.06.35-.09.14-.09.95.05.58-.49-1.12-1.62-.25.29-.34,1.01-.49,1.37-.13.3-.28.6-.43.89-1.64,3.18-4.17,5.61-7.37,7.19l2.52,4.32c2.24-1.59,4.57-3.03,7-4.32l-3.67-2.82c-1.08,2.94-3.5,5.19-5.61,7.4-2.45,2.58-4.7,5.28-5.87,8.69-.78,2.27,1.86,3.64,3.67,2.82,6.92-3.13,12.82-7.97,17.44-13.97.82-1.07.16-2.8-.9-3.42-1.29-.75-2.59-.18-3.42.9-4.09,5.31-9.56,9.42-15.65,12.17l3.67,2.82c1.02-2.97,3.39-5.22,5.5-7.44,2.47-2.59,4.73-5.26,5.97-8.65.8-2.17-1.89-3.77-3.67-2.82-2.43,1.29-4.76,2.73-7,4.32-2.61,1.86-.39,5.76,2.52,4.32,4.94-2.44,8.9-6.98,10.54-12.27,1.08-3.5-2.23-5.74-5.36-4.51-2.73,1.07-5.18,3.13-6.97,5.41-.83,1.06-1.04,2.5,0,3.54.87.87,2.7,1.07,3.54,0h0Z"/>
      <path class="cls-1" d="M83.21,25.67c.53,4.61,2.27,9.04,3.68,13.44s2.87,8.87,4.33,13.3,2.94,8.85,4.43,13.27c.62,1.84,1.01,4.54,2.86,5.54,2.82,1.53,5.55-2.28,3.3-4.51s-5.83,1.27-3.54,3.54l.14.14-.64-2.43-.03.22.64-1.1-.15.18,1.1-.64-.23.04,1.93.25c.51.81.66.97.46.47-.08-.23-.16-.46-.24-.7-.16-.46-.32-.93-.47-1.39-.29-.85-.58-1.71-.87-2.56-.6-1.78-1.2-3.57-1.8-5.35-1.19-3.57-2.37-7.14-3.54-10.72s-2.33-7.16-3.47-10.74c-1.06-3.32-2.51-6.76-2.91-10.24-.15-1.34-1.04-2.5-2.5-2.5-1.23,0-2.65,1.15-2.5,2.5h0Z"/>
      <path class="cls-1" d="M98.82,46.97c-3.75,13.31-7.49,26.62-11.24,39.92l4.82,1.33c.06-.36.13-.72.19-1.08.23-1.33-.36-2.69-1.75-3.08-1.21-.33-2.84.41-3.08,1.75-.06.36-.13.72-.19,1.08-.23,1.33.36,2.69,1.75,3.08,1.31.36,2.71-.44,3.08-1.75,3.75-13.31,7.49-26.62,11.24-39.92.87-3.1-3.95-4.43-4.82-1.33h0Z"/>
      <path class="cls-1" d="M102.94,24.13l.26-.71-4.57.6c.05.1.42.9.16.34.09.18.15.38.23.57.17.44.33.89.48,1.34.27.83.51,1.68.7,2.54.1.43.18.86.26,1.29.04.23.08.46.11.7.1.67-.05-.54.02.13.1.93.16,1.86.17,2.8.02,1.31,1.14,2.56,2.5,2.5s2.52-1.1,2.5-2.5c-.05-4.25-1.05-8.36-2.8-12.22-.41-.89-1.6-1.31-2.49-1.19-1.03.14-1.73.83-2.08,1.79l-.26.71c-.44,1.23.5,2.79,1.75,3.08,1.41.32,2.6-.43,3.08-1.75h0Z"/>
      <path class="cls-1" d="M66.72,7.71c.47,1.43.28,2.94.18,4.42-.11,1.61-.25,3.22-.42,4.82-.34,3.17-.83,6.32-1.43,9.45l4.57-.6c-.28-.46-.56-.92-.83-1.38-1.67-2.75-5.99-.24-4.32,2.52.28.46.56.92.83,1.38,1.04,1.72,4.15,1.6,4.57-.6.68-3.57,1.22-7.17,1.61-10.78.19-1.73.33-3.47.45-5.21s.19-3.62-.38-5.36c-.42-1.28-1.73-2.12-3.08-1.75-1.25.34-2.17,1.79-1.75,3.08h0Z"/>
      <path class="cls-1" d="M186.87,3.61c-3.46,10.3-9.82,19.48-15.14,28.88-5.65,9.97-11.07,20.06-16.41,30.19-3.03,5.75-6.04,11.52-9.04,17.28l4.57,1.93c.22-.79.43-1.59.65-2.38.85-3.11-3.98-4.44-4.82-1.33-.22.79-.43,1.59-.65,2.38-.73,2.68,3.23,4.49,4.57,1.93,5.37-10.31,10.75-20.61,16.27-30.84s11.1-19.92,16.8-29.81c3.12-5.41,6.03-10.96,8.03-16.9,1.03-3.06-3.8-4.37-4.82-1.33h0Z"/>
      <path class="cls-1" d="M185.01,10.18c4.02,9.46,7.86,18.97,9.5,29.18.41,2.52.78,5.06,1.5,7.52s1.73,4.77,2.67,7.13c1.96,4.94,3.46,10.08,4.89,15.19,1.5,5.37,2.82,11.08,1.72,16.66l4.18-1.1c-8.4-8.4-17.84-15.78-28.06-21.85-5.05-3-10.55-5.29-15.45-8.54s-8.16-7.55-11.37-12.04c-4.06-5.68-8.1-11.33-12.49-16.76l-1.1,4.18c5.75-1.58,11.64-2.58,17.53-3.46s11.81-1.74,17.74-2.46c12.07-1.46,24.39-2.28,36.48-.61,3,.42,6.11.97,8.82,2.38s5.25,3.34,8.48,3.17l-2.41-1.84c.22.8-1.24,2.35-1.69,2.93-.96,1.24-2.04,2.39-3.15,3.49-2.26,2.24-4.72,4.25-7.2,6.24-5.04,4.04-10.23,7.89-15.48,11.66-10.73,7.71-21.7,15.07-32.31,22.94-6.01,4.46-11.91,9.08-17.57,13.99-1.02.89-.91,2.63,0,3.54,1.01,1.01,2.51.89,3.54,0,20.66-17.92,44.43-31.75,65.71-48.88,2.8-2.25,5.58-4.55,8.04-7.18s5.97-6.22,4.94-10.06c-.27-1.01-1.33-1.89-2.41-1.84-2.48.13-4.61-1.89-6.76-2.89-2.65-1.23-5.45-1.92-8.33-2.36-6.06-.93-12.19-1.29-18.31-1.21-12.44.16-24.79,2.01-37.08,3.8-6.69.97-13.37,2.02-19.9,3.81-1.96.54-2.25,2.76-1.1,4.18,3.86,4.76,7.44,9.71,10.98,14.72,3.3,4.67,6.76,9.38,11.28,12.96s10.24,6,15.41,8.92c5.17,2.92,10.15,6.17,14.91,9.72,5.24,3.92,10.17,8.25,14.8,12.88,1.26,1.26,3.81.78,4.18-1.1,1.06-5.38.42-10.79-.87-16.08-1.29-5.3-2.89-10.6-4.72-15.73-.89-2.5-1.97-4.93-2.88-7.42s-1.49-5.02-1.93-7.63c-.89-5.32-1.95-10.51-3.66-15.64-1.93-5.79-4.33-11.41-6.71-17.03-.53-1.24-2.36-1.52-3.42-.9-1.29.75-1.43,2.17-.9,3.42h0Z"/>
    </g>
  </g>
</svg>