<?xml version="1.0" encoding="UTF-8"?>
<svg id="_图层_2" data-name="图层 2" xmlns="http://www.w3.org/2000/svg" viewBox="0 0 249.22 91.47">
  <defs>
    <style>
      .cls-1 {
        fill: #231815;
      }
    </style>
  </defs>
  <g id="_图层_1-2" data-name="图层 1">
    <path class="cls-1" d="M22.39,22.45l.58-1.93-4.82-1.33c-.76,4.52-3.22,8.35-5.16,12.42-2.07,4.32-3.6,9.13-2.56,13.94.51,2.38,1.83,4.41,3.12,6.42s2.48,4.11,3.56,6.26c2.12,4.24,3.74,8.7,4.92,13.29.69,2.67,5.11,2.2,4.91-.66-.1-1.38-.19-2.76-.29-4.13s-1.08-2.5-2.5-2.5c-1.28,0-2.6,1.15-2.5,2.5s.19,2.76.29,4.13l4.91-.66c-1.17-4.57-2.8-9.01-4.83-13.27-1.03-2.17-2.18-4.28-3.43-6.32-1.1-1.79-2.51-3.52-3.12-5.56-1.22-4.09.6-8.45,2.42-12.06,2.02-4.01,4.34-7.97,5.1-12.46.22-1.33-.35-2.69-1.75-3.08s-2.69.45-3.08,1.75l-.58,1.93c-.93,3.09,3.9,4.41,4.82,1.33h0Z"/>
    <path class="cls-1" d="M2.41,36.62c1.9.07,3.5-.79,5.28-1.29,1.66-.47,3.36-.69,5.07-.86,1.85-.18,3.7-.35,5.54-.65.86-.14,1.72-.33,2.56-.57.38-.11.79-.21,1.15-.36.67-.27.25,0,.14-.08,1.12.75,2.77.22,3.42-.9.72-1.23.23-2.66-.9-3.42-1.83-1.23-3.78-.41-5.69.08-1.8.47-3.63.65-5.47.82-1.97.19-3.95.38-5.88.79-.92.2-1.81.46-2.69.78-.83.3-1.64.68-2.53.65-3.22-.11-3.21,4.89,0,5h0Z"/>
    <path class="cls-1" d="M26.16,17.58c-1.07,8.53-3.5,16.88-6.72,24.83-1.62,4-3.5,7.9-5.54,11.7s-4.2,7.38-5.79,11.34c-.91,2.27-1.59,4.67-1.77,7.12-.11,1.46.58,2.9,2.06,3.32s3.01-.48,3.44-1.98c.9-3.1-3.92-4.42-4.82-1.33l-.05.19,1.75-1.75-.21.08h1.33l-.21-.07,1.49,1.15-.14-.3.34,1.26c0-3.48,1.83-7.1,3.41-10.11,1.79-3.42,3.75-6.75,5.47-10.22,3.48-7.02,6.39-14.36,8.41-21.93,1.17-4.37,2-8.81,2.57-13.3.17-1.34-1.27-2.5-2.5-2.5-1.49,0-2.33,1.15-2.5,2.5h0Z"/>
    <path class="cls-1" d="M36.11,25.15c.94-.86,2.44-1.78,3.78-1.61l-1.26-.34.27.15-.9-.9.16.25-.34-1.26c.06.51-.65,1.73-.95,2.4-.44.96-.88,1.93-1.19,2.94-.68,2.23-.55,4.53.14,6.74s1.62,4.14,2.23,6.29,1.03,4.31,1.25,6.5c.95,9.41-.96,18.71-2.98,27.86h4.82c-.75-2.31-1.5-4.62-2.26-6.93-.99-3.05-5.82-1.74-4.82,1.33.75,2.31,1.5,4.62,2.26,6.93s4.26,2.54,4.82,0c1.97-8.96,3.89-18.13,3.31-27.36-.28-4.47-1.11-8.91-2.73-13.09-.68-1.77-1.67-3.69-1.51-5.63s1.38-3.81,2.11-5.58c.48-1.16.81-2.47.16-3.65s-1.9-1.73-3.23-1.66c-2.49.13-4.87,1.45-6.67,3.09-2.38,2.18,1.16,5.7,3.54,3.54h0Z"/>
    <path class="cls-1" d="M27.49,49.39c3.55-1.78,7.75-2.36,11.61-3.15,2.09-.43,4.19-.84,6.28-1.22.97-.18,1.94-.35,2.91-.52.46-.08,1.02-.09,1.46-.25.41-.15.61.16.24-.18l1.1-4.18-.25.07h1.33l.12.05c-1.1-.79-2.78-.19-3.42.9-.74,1.26-.2,2.63.9,3.42.77.56,1.76.63,2.66.38,1.75-.47,2.52-2.9,1.1-4.18-2.07-1.87-4.56-1.21-7.05-.77s-4.85.88-7.26,1.36c-4.8.96-9.84,1.74-14.25,3.95-2.88,1.44-.35,5.75,2.52,4.32h0Z"/>
    <path class="cls-1" d="M60.94,34.41c11.94-2.52,23.88-5.03,35.83-7.55l-1.93-4.57c-.84.53-1.61.85-2.57,1.08-3.13.75-1.8,5.57,1.33,4.82,1.33-.32,2.61-.85,3.77-1.58,2.44-1.53.84-5.15-1.93-4.57-11.94,2.52-23.88,5.03-35.83,7.55-3.15.66-1.82,5.48,1.33,4.82h0Z"/>
    <path class="cls-1" d="M77.45,7.34c-1.87,8.71-3.47,17.53-5.96,26.08-2.26,7.76-5.29,15.27-9.05,22.42-2.17,4.13-4.58,8.12-7.2,11.98-1.81,2.67,2.52,5.17,4.32,2.52,9.54-14.05,15.79-29.72,19.41-46.27,1.12-5.13,2.21-10.27,3.31-15.41.67-3.14-4.15-4.48-4.82-1.33h0Z"/>
    <path class="cls-1" d="M75.99,45.65c3.49-1.94,7.2-3.35,11.1-4.2.93-.2,1.87-.39,2.82-.52.11-.02.86-.04.89-.09.04-.08-.79-.81-.66-.86-.05.02-.16.59-.19.66-.17.47-.44.92-.67,1.37-.46.91-.94,1.8-1.45,2.68-3.94,6.85-9.17,12.8-14.5,18.59-1.58,1.72-3.18,3.42-4.86,5.05-.87.84-1.74,1.73-2.7,2.47-.5.39-1.43,1.13-2.12,1.04-1.34-.18-2.68.32-3.08,1.75-.32,1.17.4,2.89,1.75,3.08,2.91.4,5.14-.75,7.32-2.6,1.88-1.6,3.61-3.4,5.31-5.19,3.35-3.54,6.64-7.17,9.71-10.97s6-7.85,8.33-12.21c1.05-1.97,2.54-4.34,2.02-6.67-.62-2.79-3.21-3.36-5.67-3.03-5.59.76-10.96,2.59-15.88,5.33-2.81,1.56-.29,5.88,2.52,4.32h0Z"/>
    <path class="cls-1" d="M70.31,55.12c12.19,4.94,21.37,15,32.2,22.14,3.22,2.12,6.59,3.93,10.15,5.41,1.25.52,2.75-.56,3.08-1.75.4-1.44-.49-2.55-1.75-3.08-12.14-5.07-21.28-15.14-32.17-22.22-3.23-2.1-6.61-3.88-10.18-5.33-1.25-.51-2.75.55-3.08,1.75-.39,1.43.49,2.57,1.75,3.08h0Z"/>
    <path class="cls-1" d="M183.15,19.23c-1.39-.32-1.54-1.9-1.18-3.07.56-1.82,2.07-3.4,3.47-4.63,2.63-2.3,6.03-2.8,9.04-.97,2.68,1.63,3.93,4.64,3.16,7.67-.38,1.5-1.13,2.85-2.25,3.92-1.01.97-2.8,2.13-4.17,1.29-3.12-1.9-4.23-6.55-3.31-9.87.48-1.74,1.44-3.3,2.76-4.53,1.16-1.08,2.87-2.21,4.51-1.58,3.82,1.46,3.28,6.52,2.3,9.62-.91,2.9-3.74,7.32-7.45,5.84-3.49-1.39-2.95-6.03-.85-8.33,1.33-1.46,3.08-2.32,4.98-2.78,1.4-.34,3.55-.76,4.82-.07.43.23.42.59.32,1.25-.17,1.09-.56,2.2-.95,3.23-.7,1.88-1.71,3.9-3.14,5.33-.95.95-1.99,1.36-2.92.55-1.13-.98-1.54-2.71-1.6-4.12-.07-1.76.27-3.69,1.64-4.92,1.09-.98,2.42-1.12,3.69-.39,3.69,2.13,2.23,7.28.55,10.22-.54.95-1.15,1.86-1.79,2.75-.22.31-.43.64-.68.93.04-.05-.47.52-.48.5.01.02.52-.34.45-.09-.04.14-.48-.51-.46-.48-.22-.41-.31-.93-.38-1.39-.13-.76-.15-1.56-.1-2.34.14-2.64,1.7-6.51,4.74-6.87.15-.02.6-.01.63.02.37.4-.19,1.68-.34,2.08-.71,1.85-1.82,3.66-3.11,5.16-.1.11-.49.46-.56.63l-.28.28,1.81.53c.04-.06-.14-1.19-.14-1.26-.02-1.07.15-2.1.48-3.12.25-.78.61-1.58,1.17-2.19,0,0,.8-.56.37-.59.8.05-.16,3.11-.49,3.74-.22.42-.45.83-.73,1.22-.25.35-.71.68-.91,1.05l-.13.13c-.36.3-.12.28.74-.05.12-.05.25.22.29.09.05-.15-.36-.99-.4-1.16-.23-1-.47-3.57.56-4.2.86-.53.95,1.51.79,2.11-.35,1.31-1.4,3.66-2.86,4.08-1.64.48-2.88-1.65-3.39-2.86-.39-.92-.67-1.89-.94-2.85-.3-1.02-.68-2.2-.39-3.27.45-1.63,2.36-1.28,3.68-.93,3.09.81,4.36,3.67,2.82,6.31-1.41,2.41-4.75,2.37-6.75.57-2.19-1.97-1.64-5.74.55-7.52,1.49-1.21,3.96-1.84,5.85-1.9.69-.02,1.58.05,2.11.57s.3,1.42.11,2.07c-1.11,4-3.63,7.63-6.71,10.37-1.29,1.15-2.99,2.43-4.81,2.32-1.44-.09-2.75-.99-3.45-2.24-1.84-3.29,1.85-7.1,4.22-8.94,1.59-1.24,3.42-2.27,5.31-2.97,1.59-.59,3.72-1.38,5.41-.76,3.56,1.3-.22,7.9-1.36,9.76-.78,1.27-2.14,2.78-3.8,2.57-1.76-.22-3.34-1.81-4.42-3.11-2.12-2.55-3.15-6.35.05-8.48,2.07-1.39,6.96-2.97,8.74-.35.89,1.31.78,3.21.51,4.69-.41,2.24-1.2,4.5-2.37,6.46-.67,1.11-1.86,2.76-3.31,2.77s-2.93-1.93-3.6-3.1c-1.7-2.96-1.43-6.81,1.33-9.04,2.36-1.91,6.11-1.57,7.77,1.12,1.07,1.74.72,4.11.36,6.02-.39,2.09-1,4.19-1.89,6.12-.83,1.8-1.85,4.07-3.43,5.33-1.36,1.09-2.62-.54-3.48-1.56-1.47-1.75-2.73-3.72-3.77-5.75-.83-1.63-1.67-3.76-1.1-5.6,1.03-3.31,6.02-3.82,8.89-3.42,1.74.24,3.55,1.01,4.66,2.42,1.24,1.58,1.15,3.56.68,5.42-.82,3.22-2.31,7.63-5.36,9.39-3.5,2.02-8.39-.47-11.33-2.5s-5.54-5.92-4.02-9.6,5.82-5.59,9.2-6.76c3.62-1.25,8.1-2.27,11.88-1.11,1.26.39,2.44,1.18,2.7,2.56.38,1.99-.66,4.2-1.51,5.95-.95,1.96-2.08,3.93-3.49,5.59-1.14,1.34-2.56,2.75-4.38,3.01-3.77.54-7.6-3.67-8.95-6.77-1.53-3.5.07-6.79,3.09-8.82s7.57-3.64,11.18-2.67c4.12,1.1,1.98,6.69,1.02,9.41-.74,2.09-1.7,4.08-2.84,5.98-.61,1.02-1.72,3.39-3.05,3.69-1.51.33-3.21-2.27-3.92-3.25-1.3-1.8-2.43-3.73-3.32-5.76-.84-1.89-1.43-3.91-1.85-5.93-.39-1.86-.75-3.96-.24-5.83.86-3.13,4.75-3.63,7.5-3.27,2.11.28,4.21,1.03,6.07,2.04,1.54.83,3.29,1.92,4.06,3.58.86,1.86-.23,3.98-1.01,5.69-.92,2.04-1.99,4.01-3.2,5.89s-2.5,3.67-3.99,5.32c-.95,1.06-2.3,2.55-3.89,2.32s-2.79-1.92-3.54-3.22c-.97-1.68-1.66-3.64-1.9-5.56s0-3.8,1.12-5.36,2.89-2.58,4.59-3.38c3.25-1.51,8.02-2.73,11.52-1.29,3.79,1.56,2.16,6.93,1.1,9.81-1.42,3.84-3.94,7.77-6.74,10.76-1.28,1.37-2.78,2.54-4.67,2.89s-3.83-.12-5.47-.98c-3.62-1.9-6.18-5.58-7.95-9.15s-2.73-7.77-.75-11.32,5.94-5.82,9.44-7.58c5.77-2.9,18.97-7.19,20.01,2.98.47,4.59-.76,9.54-2.17,13.87-1.29,3.98-3.17,7.97-6.19,10.93-1.31,1.29-3.01,2.51-4.91,2.55-1.73.03-3.27-1.12-4.29-2.44-1.31-1.7-2.03-3.82-2.66-5.85s-1.12-4.05-1.25-6.15c-.25-4.23,1.11-7.76,4.37-10.51,1.55-1.31,3.37-2.32,5.17-3.23s3.93-1.88,6.06-1.96c1.75-.06,3.6.37,4.74,1.8s1.5,3.43,1.65,5.19c.42,4.77-.6,9.48-2.36,13.9-.6,1.52-1.33,3.33-2.63,4.39s-3.03.42-4.44-.27c-3.72-1.83-6.86-4.49-9.4-7.76-.83-1.07-2.67-.87-3.54,0-1.05,1.05-.83,2.46,0,3.54,1.88,2.42,4.1,4.49,6.59,6.26s5.37,3.46,8.38,3.78c6.84.75,9.71-7.28,11.18-12.53.88-3.14,1.38-6.45,1.3-9.71-.08-3-.52-6.27-2.13-8.87-1.73-2.79-4.6-4.33-7.83-4.66s-6.26.74-9.1,2.08c-5.36,2.54-10.57,6.28-12.35,12.21s-.12,12.43,2.24,17.85c1.24,2.84,3.21,5.52,6.05,6.92s6.04,1.22,8.9-.2c5.55-2.76,8.86-9.14,10.84-14.72,1.11-3.11,1.89-6.33,2.36-9.6.44-3,.7-6.01.08-9.01-1.34-6.55-7.64-9.78-13.94-9.2s-12.58,3.22-17.77,6.73-8.89,8.17-8.47,14.54c.4,6,3.69,12.01,7.89,16.22s10.93,6.67,16.67,3.65c2.67-1.41,4.66-3.79,6.4-6.2s3.37-4.94,4.59-7.66c2.38-5.29,4.26-13.33-1.58-17.12-5-3.25-12.27-1.59-17.28.7-2.68,1.22-5.23,3.04-6.8,5.58-1.66,2.7-1.91,5.91-1.4,8.97.86,5.19,4.47,12.48,10.63,12.39,3.07-.04,5.52-2.02,7.44-4.24,2.02-2.34,3.84-4.88,5.4-7.56s3.37-5.94,3.99-9.09-.44-6.18-2.76-8.45c-4.13-4.05-10.84-6.25-16.55-5.38-14.48,2.21-7.51,21.4-1.84,28.86,1.8,2.37,4.13,5.01,7.36,5.06s5.49-2.65,7.15-5.23,3.06-5.54,4.07-8.53,1.76-5.95,1.24-8.97c-1.22-6.96-9.26-7.25-14.68-5.76s-11.37,5.27-12.3,11.32,3.39,12.12,8.54,14.9c2.97,1.61,6.29,1.95,9.39.52,2.69-1.24,4.67-3.65,6.3-6.03,3.23-4.72,7.21-12.56,2.39-17.55-3.96-4.1-10.97-3.32-15.95-2.12-5.48,1.33-12.07,4.25-14.79,9.54-3.08,5.99-.03,12.53,4.99,16.29,4.65,3.48,11.96,6.22,17.34,2.8,2.34-1.49,4-3.82,5.16-6.3,1.32-2.8,2.5-5.86,2.69-8.98.41-6.8-5.67-11.04-11.92-11.18-5.81-.12-12.38,2.7-12.78,9.25-.2,3.23,1.29,6.4,2.89,9.11s3.5,5.62,6.11,7.34c6.56,4.32,11.21-4.26,13.17-9.27,2.09-5.34,3.64-13.08-1.34-17.3-4.52-3.83-11.21-3.14-14.92,1.47s-3.21,11.44.73,16c2,2.32,5.04,4.04,8.16,3.1,2.75-.83,4.83-3.17,6.14-5.63,2.55-4.78,4.91-12.82.21-17.13-4.23-3.88-11.66-2.27-15.66,1.16-5.03,4.3-3.35,11.21.56,15.6,1.96,2.2,4.72,4.19,7.76,4.29,3.32.11,6.06-2.05,7.82-4.69.81-1.22,1.4-2.57,1.99-3.9.73-1.67,1.39-3.32,1.61-5.14.35-2.91-.66-6.04-3.25-7.65-5.09-3.15-12.47.52-16.63,3.71-4.6,3.52-9.07,9.86-5.6,15.69,1.38,2.32,3.83,4.02,6.5,4.44,3.23.5,6.11-.89,8.58-2.86s4.45-4.33,6.06-6.94,3.14-5.66,3.26-8.65c.13-3.28-2.2-5.92-5.35-6.57s-7.44.39-10.15,2.18c-4.43,2.93-6.25,9.43-3.19,13.99s9.91,5.89,14.16,2.19,4.16-10.45-.08-13.86c-2.29-1.84-5.41-2.66-8.32-2.32-3.42.4-5.53,3.16-5.72,6.5-.1,1.72.41,3.46.91,5.08.48,1.51,1.01,3.08,1.86,4.43,1.7,2.7,4.89,4.78,8.19,3.92,2.89-.75,4.79-3.41,5.92-6.01,1.32-3.03,1.3-6.67-1.46-8.9-2.59-2.09-6.03-1.34-7.87,1.31-1.67,2.4-1.73,5.77-.97,8.49.93,3.32,4.26,5.74,7.35,3.15,2.28-1.91,3.88-5.02,4.2-7.97.28-2.62-.76-5.62-3.45-6.54-3.15-1.07-6.03,1.36-7.32,4.07s-2.11,6.4-1.03,9.34c.57,1.56,1.94,2.73,3.66,2.66,1.83-.08,3.08-1.53,4.14-2.86,1.86-2.32,3.7-5.18,4.27-8.15.61-3.14-.81-6.34-4.2-6.89-5.59-.91-9.94,4.62-10.8,9.59-.47,2.71-.48,5.96.91,8.43,1.7,3.02,5.59,3.92,8.11,1.34,2.14-2.19,3.86-5.27,4.95-8.1s1.34-6.3.17-9.21c-2.29-5.71-9.7-7.98-14.12-3.15-3.79,4.14-3.78,12.13.58,15.93,2.25,1.96,5.4,2.25,7.96.68s4.36-4.58,5.56-7.35,2.74-6.61,1.17-9.56c-1.32-2.49-4.32-3.27-6.94-3.17-6.07.23-12.61,3.6-14.03,9.98-1.36,6.17,3.39,12.58,9.99,11.59s9.68-7.56,10.39-13.4c.39-3.24-.26-6.54-2.37-9.1-1.77-2.15-4.56-3.5-7.36-3.18-6.16.69-10.47,7.23-10.78,13.02-.29,5.36,3.38,13.38,9.62,13.37,5.86,0,10.09-6,10.59-11.32s-3.11-10.44-8.23-12.3c-5.39-1.96-10.83.48-14.42,4.62-1.9,2.2-3.63,4.98-3.38,8.02s2.09,5.63,5.02,6.3c3.13.71,4.47-4.11,1.33-4.82h0Z"/>
    <path class="cls-1" d="M146.66,84.98c-.94-3.15.73-6.77,2.44-9.38s4.17-4.86,6.84-6.56c6.58-4.19,14.55-5.32,22.18-5.9,17.34-1.31,34.87-.31,51.94,3.05,3.88.76,8.53,1.35,11.6,4.1,1.38,1.24,2.28,2.73,2.44,4.6.2,2.4-.32,4.8-.19,7.21.16,2.95,3.86,3.22,4.91.66,1.23-2.99-.47-6.54-4.07-5.84-1.33.26-2.08,1.84-1.75,3.08.38,1.38,1.75,2.01,3.08,1.75l.3-.06h-1.33c-.29-1.09-.55-1.41-.77-.97-.08.24-.17.48-.27.72l4.91.66c-.24-4.5,1.08-9-1.71-13.01-2.48-3.56-6.36-5.47-10.46-6.55-4.49-1.18-9.14-1.93-13.72-2.63s-9.58-1.3-14.4-1.69c-9.51-.77-19.08-.84-28.6-.22-8.82.58-18.06,1.63-25.81,6.22-3.69,2.18-6.94,5.12-9.33,8.69-2.51,3.75-4.39,8.89-3.05,13.39.92,3.08,5.75,1.77,4.82-1.33h0Z"/>
    <path class="cls-1" d="M161.24,62.93c1.21-.31,2.38-.45,3.63-.41.99.04,1.85.31,2.79.52-.03,0,.4.2.31.14-.2-.14.22-.31-.08.11-.1.13-.19.28-.29.41-.66.89-1.62,1.64-2.43,2.38-3.69,3.33-7.83,6.12-11.94,8.9l3.03,3.93c3.29-3.81,7.07-7.11,11.34-9.8l-3.42-3.42c-3.71,5.48-8.44,10.26-13.89,14.02l3.42,3.42c3.78-6.64,9.66-11.65,16.11-15.6l-3.42-3.42c-2.29,3.3-4.78,6.46-7.47,9.44-1.31,1.45-2.65,2.87-4.04,4.23-1.27,1.24-2.59,2.41-4.35,2.84l2.82,3.67c3.35-5.13,7.81-9.43,13.03-12.64l-3.42-3.42c-1.79,2.5-3.9,4.76-6.23,6.75-1.19,1.02-2.45,1.95-3.76,2.81-.6.39-1.22.83-1.88,1.14-.04.02-.4.18-.33.11.41-.46.69,2.31,1.3,1.51.41-.54.65-1.31.99-1.9.38-.68.8-1.34,1.23-1.98.79-1.17,1.68-2.26,2.66-3.28s2.01-1.99,3.12-2.85c.61-.48,1.26-.92,1.92-1.33.27-.17.55-.34.83-.51.17-.1.34-.2.51-.29.57-.26.44-.3-.4-.11l-1.1-.64.2.2-.64-1.1.07.3v-1.33c-.21.99-1.29,2.3-1.96,3.14-.9,1.13-1.94,2.17-3.04,3.11-2.08,1.76-4.57,3.04-7.17,3.83l2.82,1.15-.15-.33.34,1.26c-.02-.21.04-.46-.05-.18.1-.29.38-.6.56-.84.31-.42.63-.83.96-1.24.83-1.03,1.71-2.02,2.62-2.98.86-.9,1.76-1.77,2.69-2.61.44-.39.88-.78,1.34-1.15.1-.08.66-.44.73-.59.15-.32.78.67-.8-.24l-.9-.9c-.3-.4.02-1.17-.29-.15-.08.26-.16.52-.25.79-.2.59-.41,1.17-.65,1.74-.48,1.13-1.05,2.22-1.68,3.27-.59,1-1.24,1.97-1.96,2.88-.38.48-.79.95-1.21,1.41-.19.2-.37.41-.57.6-.4.4-.63.36,0,.46l1.75,3.08c.73-3.05,2.51-5.66,5.17-7.34l-3.67-1.49c.29.91-1.33,2.77-1.83,3.54-.9,1.37-1.87,2.7-2.9,3.98-2.16,2.66-4.57,5.1-7.18,7.33h3.54l.07.04.34,1.26c.01.11-.08-.09.1-.27.21-.21.38-.47.57-.7.56-.67,1.12-1.33,1.71-1.98,1.07-1.2,2.19-2.35,3.35-3.47,2.31-2.22,4.78-4.27,7.41-6.11s5.4-3.5,8.28-4.94c1.36-.68,2.75-1.33,4.16-1.9.81-.33,1.62-.64,2.44-.93.62-.22,1.53-.69,2.17-.65l-1.26-.34c-.06-.03-.51-1.46-.57-1.46.05,0-.38.5-.4.52-.42.53-.88,1.03-1.33,1.54-.9,1.01-1.82,2.01-2.77,2.98-1.89,1.94-3.88,3.78-5.94,5.54s.18,4.69,2.43,4.18c8.88-2.03,16.98-6.36,24.92-10.67l-2.52-4.32c-6.16,4.13-12.53,7.9-19.11,11.31-2.52,1.31-.78,5.36,1.93,4.57,6.85-2.01,13.46-4.81,19.67-8.34,2.82-1.6.33-5.75-2.52-4.32-4.08,2.04-8.15,4.12-12.38,5.84-2.13.87-4.29,1.67-6.5,2.34-1.03.31-2.06.6-3.1.86-.6.15-1.19.29-1.8.41-.92.18-.03-.05.29.35l.64,1.1.04.11-.34,1.26c.25-.48,1.07-.88,1.52-1.2.72-.51,1.45-1,2.2-1.47,1.56-.98,3.17-1.88,4.8-2.72,3.22-1.66,6.55-3.09,9.87-4.52l-2.52-4.32c-6.31,2.85-12.62,5.7-18.93,8.55l2.52,4.32c5.76-4.32,12.06-7.94,18.76-10.6l-2.82-3.67c-1.88,2.89-5.45,4.14-8.56,5.23-4.3,1.52-8.68,3.07-13.3,2.9l.66,4.91c11.02-3.83,22.45-6.48,34.05-7.77l-.66-4.91c-10.23,3.51-20.73,7.08-31.69,6.56l2.41,3.16c.16-.64,1-.94,1.58-1.23,1.16-.59,2.34-1.13,3.52-1.67,2.41-1.1,4.85-2.11,7.33-3.06,4.98-1.9,10.11-3.61,15.33-4.75,2.51-.55,5.09-.91,7.67-.82.6.02,1.28.3,1.77.35.4.05.19.28.16-.05.04.38-.34.86-.55,1.16-1.17,1.63-3.02,2.68-4.79,3.54-2.18,1.06-4.49,1.9-6.8,2.65-2.79.9-5.63,1.63-8.51,2.16-2.67.5-5.71,1.22-8.33.19l.6,4.57c2.87-1.57,6.46-1.7,9.65-2.02,3.75-.39,7.52-.67,11.28-.97,7.56-.6,15.12-1.21,22.68-1.81l-.66-4.91c-13.03,2.93-26.55-.1-39.67,2.29-2.74.5-2.15,5.16.66,4.91,7.23-.65,14.47-1.3,21.7-1.95l10.85-.98c3.44-.31,7.02-.93,10.48-.66l-2.5-2.5c.05-.62.18-.28-.29-.16-.27.07-.55.28-.82.39-.92.4-1.88.73-2.83,1.04-1.9.62-3.85,1.1-5.81,1.48-3.96.77-8,1.08-12.03,1.3-8.28.46-16.64.55-24.75,2.51-2.76.67-2.14,4.9.66,4.91,13.29.03,26.58.06,39.88.09l-1.77-4.27c-1.06.99-3.13.93-4.49,1.08-2.08.22-4.17.4-6.26.55-4.34.31-8.69.5-13.04.7-8.75.39-17.5.87-26.15,2.31-2.75.46-2.14,5.23.66,4.91,2.61-.3,5.03.43,7.55,1.02,2.74.64,5.53,1.08,8.33,1.34,5.48.51,10.98.17,16.38-.83,2.73-.51,2.14-5.26-.66-4.91-7.35.91-14.8.97-22.19,1.25-6.86.26-13.96.91-20.57-1.37-1.37-.47-2.61.56-3.08,1.75.43-1.09,1.51-1.43,2.26-.34l-2.16,3.76c5.92.21,11.65-.7,17.37-2.14,2.79-.7,5.6-1.33,8.47-1.62s5.85-.29,8.79-.19c5.92.19,11.78.13,17.69-.26s11.71-.97,17.58-1.28c6.47-.35,13.02-.43,19.45.47,1.34.19,2.69-.33,3.08-1.75.32-1.17-.4-2.89-1.75-3.08-11.9-1.67-23.79-.45-35.71.44-5.87.44-11.74.73-17.63.54s-11.94-.2-17.88,1.08c-3.22.69-6.37,1.65-9.62,2.2s-6.55.7-9.84.58c-1.81-.07-3.23,2.21-2.16,3.76,1.88,2.74,5.69,2.15,6.87-.86l-3.08,1.75c6.87,2.38,14.27,1.84,21.42,1.57,7.55-.29,15.16-.35,22.67-1.27l-.66-4.91c-5.11.95-10.35,1.13-15.52.61-2.51-.26-4.99-.74-7.44-1.34-2.61-.64-5.27-1.28-7.97-.98l.66,4.91c8.84-1.48,17.82-1.82,26.76-2.22,4.51-.2,9.02-.42,13.52-.8,2.27-.19,4.54-.4,6.79-.72,1.91-.27,3.64-.84,5.07-2.19,1.6-1.5.35-4.26-1.77-4.27-13.29-.03-26.58-.06-39.88-.09l.66,4.91c8.67-2.09,17.63-1.88,26.47-2.52,4.44-.32,8.91-.84,13.23-1.94,2.09-.53,4.12-1.21,6.11-2.04,2.28-.95,4.18-2.22,4.39-4.89.11-1.42-1.24-2.4-2.5-2.5-3.46-.27-7.03.35-10.48.66l-10.85.98c-7.23.65-14.47,1.3-21.7,1.95l.66,4.91c13.12-2.39,26.59.65,39.67-2.29,2.71-.61,2.17-5.14-.66-4.91-7.89.63-15.78,1.26-23.66,1.89-3.92.31-7.85.61-11.76,1.04-3.67.41-7.41.75-10.71,2.55-2.06,1.13-1.28,3.83.6,4.57,3.06,1.2,6.48.57,9.62.05s6.2-1.25,9.21-2.19c5.38-1.68,11.92-3.8,15.24-8.7,1.79-2.65,1.67-6.14-1.27-7.88-2.39-1.42-5.48-1.23-8.14-.96-6.39.65-12.64,2.68-18.64,4.86-3.4,1.23-6.76,2.61-10.06,4.1-2.91,1.31-6.93,2.6-7.82,6.08-.42,1.63.78,3.09,2.41,3.16,11.4.54,22.38-3.09,33.02-6.74,1.17-.4,1.98-1.47,1.79-2.74-.17-1.11-1.2-2.31-2.46-2.17-12.06,1.34-23.92,3.96-35.38,7.94-2.63.92-2.23,4.81.66,4.91,5.32.19,10.41-1.56,15.34-3.33,4.21-1.52,8.32-3.41,10.84-7.28,1.12-1.72-.78-4.49-2.82-3.67-7.12,2.83-13.82,6.5-19.96,11.1-2.57,1.93-.44,5.66,2.52,4.32,6.31-2.85,12.62-5.7,18.93-8.55,1.23-.56,1.53-2.34.9-3.42-.75-1.28-2.18-1.43-3.42-.9-3.46,1.49-6.92,2.99-10.26,4.73-1.63.85-3.23,1.76-4.78,2.75s-3.25,2-4.48,3.3c-1.48,1.56-1.31,4.1.63,5.21,1.68.96,3.79.26,5.52-.17,3.79-.94,7.46-2.29,11.05-3.81,4.12-1.74,8.12-3.74,12.12-5.74l-2.52-4.32c-5.85,3.33-12.02,5.94-18.47,7.84l1.93,4.57c6.58-3.41,12.96-7.18,19.11-11.31,2.66-1.78.33-5.86-2.52-4.32-7.59,4.11-15.25,8.23-23.73,10.16l2.43,4.18c3.72-3.16,7.23-6.62,10.32-10.4,1.51-1.84,2.54-4.86,0-6.42-2.05-1.26-4.8.19-6.79.97-8.28,3.24-15.89,8.01-22.37,14.12-1.75,1.65-3.42,3.41-4.98,5.24-1.73,2.04-4.04,4.87-1.59,7.36,1,1.02,2.51.87,3.54,0,3.1-2.65,5.88-5.61,8.37-8.84,1.22-1.58,2.37-3.22,3.41-4.92,1.12-1.81,2.11-3.78,1.41-5.95-.48-1.48-2.25-2.39-3.67-1.49-3.73,2.36-6.44,6.03-7.46,10.33-.29,1.2.37,2.86,1.75,3.08,2.5.39,4.12-.86,5.72-2.65,1.33-1.49,2.54-3.11,3.57-4.82s1.88-3.54,2.59-5.41,1.62-4.05.18-5.71c-3.14-3.65-8.11,2.06-10.26,4.26-1.49,1.52-2.86,3.14-4.16,4.83-1.46,1.9-2.39,3.65-1.36,6.02.43.98,1.86,1.44,2.82,1.15,4.64-1.4,8.91-4.08,12.06-7.78,1.44-1.69,3.88-4.41,3.65-6.78-.15-1.54-1.44-2.7-2.98-2.74-1.42-.04-2.71.85-3.86,1.58-4.14,2.64-7.66,6.22-10.22,10.41-1.28,2.09-3.38,5.32-1.3,7.55,1.82,1.95,4.54,1.12,6.52-.08,5.08-3.08,9.38-7.19,12.83-12.01,1.49-2.08-1.39-4.67-3.42-3.42-5.96,3.66-11,8.58-14.82,14.43-1.24,1.89.8,4.17,2.82,3.67,4.29-1.06,7.45-4.88,10.3-8.02,3.09-3.4,5.94-7.02,8.56-10.79,1.45-2.09-1.37-4.68-3.42-3.42-7.17,4.38-13.71,10.02-17.9,17.39-1.17,2.06,1.28,4.9,3.42,3.42,6.19-4.27,11.47-9.59,15.68-15.82,1.41-2.08-1.36-4.72-3.42-3.42-4.61,2.91-8.79,6.45-12.35,10.58-.81.94-1.01,2.27-.2,3.28.73.92,2.18,1.35,3.23.64,2.74-1.85,5.48-3.7,8.11-5.71s5.56-4.15,7.62-6.79,1.83-6.44-1.44-8.12c-3.02-1.55-6.94-1.38-10.13-.56s-1.79,5.63,1.33,4.82h0Z"/>
    <path class="cls-1" d="M165.02,80.33c-.9-.04-1.76.15-2.64.3-.2.04-.72.01-.88.1.3.1.4.12.3.05-.46-.36-.49.21-.08,1.71,1.12-.2,2.21-2.13,2.06-3.29l-4.27,1.77c-.27-.29.18-.93-.22-.37l3.93-.51c-.21-.24-.23-.54-.28-.85-.28-1.68-2.38-2.16-3.67-1.49-2.68,1.39-5.6,1.93-8.6,1.75l2.41,3.16c.18-.51.71-.9,1.24-.94l-2.16-3.76c-.46,1.01-1.38,1.83-2.56,1.59l1.84,2.41c0-.35,0-.46.32-.67l-3.67-1.49.05.26v-1.33l.08-.11.9-.9-.15.09h2.52l-.16-.09-1.26,4.66c4.37-.04,8.25-1.91,12.35-3.14,4.34-1.3,8.86-1.94,13.32-2.7,8.99-1.54,17.99-3.45,27.12-3.87,5.31-.25,10.63-.3,15.94-.42,2.39-.06,3.51-3.45,1.26-4.66-6.48-3.49-14.17-2.45-21.25-2.73-7.36-.28-14.67-1.27-21.63-3.77l-.66,4.91c16.16,2.12,32.76.34,48.71,4.22,4.17,1.02,8.24,2.42,12.07,4.37l-.51-3.93c-.7.79-1.8.9-2.8,1.09-1.43.27-2.88.41-4.34.48-3.14.15-6.28-.03-9.41-.27-6.29-.47-12.57-.98-18.86-1.47v5c6.88.03,13.76.07,20.64.1,3.2.02,6.66.4,9.81-.3s5.65-3.2,5.55-6.43c-.02-.84-.45-1.77-1.24-2.16-2.35-1.17-4.86-1.79-7.49-1.73-1.35.03-2.5,1.13-2.5,2.5,0,1.49,1.15,2.33,2.5,2.5,1.58.2,3.15.55,4.68.99.73.21,1.46.43,2.16.7.5.19.93.51,1.42.7,1.49.61-.78-.09.4-.16-.13,0-.4.19-.6.21-1.63.19-3.48-.34-5.12-.46-7.04-.53-14.09.15-21.09.83l.66,4.91c3.83-1.1,7.65-2.2,11.48-3.3,2.83-.81,8.99-1.95,7.46-6.35-.48-1.37-1.66-1.99-3.08-1.75-8.19,1.39-16.68,1.27-24.82-.35-4.14-.82-8.15-2.04-12.1-3.54-2.06-.78-4.11-1.5-6.29-1.81s-4.44-.34-6.67-.23-4.35.35-6.51.67c-1.06.16-2.08.34-2.9,1.09-.96.88-1.34,2.23-.77,3.45,1,2.12,4.22,2.15,6.25,2.39,2.13.25,4.28.29,6.42.23,4.45-.12,8.88-.64,13.34-.76s8.61,0,12.9.35c9.69.79,19.25,2.84,28.44,5.98l-1.49-3.67v-.08c.36-.21.73-.43,1.1-.64l.47.07c-3.13-.7-4.47,4.12-1.33,4.82,1.69.38,3.11-.22,4.08-1.64s-.07-3.19-1.49-3.67c-8.22-2.81-16.71-4.69-25.34-5.72s-17.22-.91-25.88-.29c-2.39.17-4.79.31-7.19.28-1.27-.02-2.54-.08-3.8-.22-.49-.06-.97-.13-1.45-.22-.31-.06-.62-.12-.93-.19-.16-.03-.31-.07-.47-.11-.28-.06-.31-.07-.09-.03l1.15,1.49-.08-.26-.25,1.93c-.69.42-.71.54-.06.35.31-.05.62-.1.93-.14.55-.08,1.11-.14,1.67-.2,1.25-.13,2.5-.22,3.75-.28,2.4-.1,4.81-.09,7.15.52s4.7,1.67,7.06,2.47,4.66,1.45,7.04,2c9.69,2.22,19.7,2.44,29.49.78l-3.08-1.75c-.09-.26.44-.93.24-1.07.11.07-.6.23-.62.24-.7.24-1.44.41-2.15.62-1.44.41-2.87.83-4.31,1.24-2.87.83-5.74,1.65-8.61,2.48-2.6.75-2.23,5.19.66,4.91,4.57-.44,9.15-.88,13.74-.99,2.13-.05,4.25-.03,6.37.1s4.39.7,6.53.49,3.99-1.27,4.75-3.25.07-3.93-1.42-5.29-3.48-2-5.37-2.57c-2.11-.63-4.26-1.02-6.44-1.3v5c1.74-.04,3.4.27,4.97,1.05l-1.24-2.16c.06,1.92-3.2,1.76-4.43,1.76-2.97,0-5.95-.03-8.92-.04-5.89-.03-11.77-.06-17.66-.08-3.26-.02-3.17,4.75,0,5,6.77.53,13.53,1.12,20.31,1.57,3.29.22,6.59.34,9.88.03,2.93-.28,6.66-.56,8.76-2.91,1.01-1.13,1.01-3.16-.51-3.93-14.96-7.61-31.95-7.47-48.31-8.11-5.01-.2-10.01-.5-14.99-1.16-1.21-.16-2.33,1.07-2.46,2.17-.15,1.29.59,2.31,1.79,2.74,6.92,2.48,14.26,3.52,21.58,3.88,3.53.18,7.06.12,10.59.19,3.26.07,6.59.34,9.51,1.91l1.26-4.66c-9.32.22-18.62.23-27.85,1.66-4.54.71-9.06,1.53-13.59,2.3s-9.08,1.42-13.54,2.48-9.01,3.65-13.75,3.69c-2.47.02-3.41,3.4-1.26,4.66l.16.09c.76.45,1.76.46,2.52,0,1.35-.81,1.68-2.2,1.43-3.66-.27-1.57-2.41-2.31-3.67-1.49-1.75,1.13-2.78,2.89-2.8,4.99,0,1.03.78,2.19,1.84,2.41,3.25.66,6.78-.77,8.21-3.89.72-1.58-.09-3.9-2.16-3.76-2.88.19-5.11,1.89-6.06,4.61-.57,1.63.9,3.07,2.41,3.16,3.88.24,7.68-.65,11.13-2.43l-3.67-1.49c.2,1.19.79,2.17,1.57,3.06,1.15,1.31,3.06.71,3.93-.51,1.28-1.78.87-4.15-.57-5.69-1.36-1.45-4.56-.44-4.27,1.77-.05-.34,1.16-1.34.39-1-.27.12-.54.38-.76.56-.48.41-.85.88-1.09,1.46-.53,1.32-.2,2.76.72,3.83.8.93,1.9,1.51,3.12,1.63,1.31.13,2.55-.42,3.85-.36,3.22.14,3.21-4.86,0-5h0Z"/>
  </g>
</svg>