<?xml version="1.0" encoding="UTF-8"?>
<svg id="_图层_2" data-name="图层 2" xmlns="http://www.w3.org/2000/svg" viewBox="0 0 247.47 94.65">
  <defs>
    <style>
      .cls-1 {
        fill: #231815;
      }

      .cls-2 {
        fill: none;
        stroke: #231815;
        stroke-miterlimit: 10;
      }
    </style>
  </defs>
  <g id="_图层_1-2" data-name="图层 1">
    <g>
      <path class="cls-1" d="M139.59,34.14c1.59,9.38,3.23,18.75,4.74,28.14s2.36,18.79,1.8,28.32c-.19,3.21,4.81,3.2,5,0,.58-9.81-.35-19.49-1.9-29.17-1.53-9.55-3.21-19.08-4.82-28.61-.23-1.33-1.87-2.08-3.08-1.75-1.41.39-1.97,1.74-1.75,3.08h0Z"/>
      <path class="cls-1" d="M146,15.12l18.32-4.16c5.85-1.33,11.71-2.75,17.66-3.53s12.26-.54,18.49-.17,12.23-.57,18.33-1.65c1.59-.28,3.18-.6,4.79-.65s3.11.29,4.66.68c3.37.85,6.73,1.71,10.1,2.57,3.12.79,4.45-4.03,1.33-4.82s-6.11-1.56-9.17-2.33-5.98-1.3-9.16-.89c-6.18.8-12.18,2.36-18.46,2.21-3.09-.07-6.16-.42-9.25-.53s-6.18.02-9.25.32c-6.34.63-12.56,1.98-18.76,3.39-6.99,1.59-13.98,3.18-20.97,4.77-3.14.71-1.81,5.53,1.33,4.82h0Z"/>
      <path class="cls-1" d="M241.92,6.16c.67,5.37.5,10.86.44,16.26s-.22,10.96-.48,16.43c-.54,10.95-1.49,21.88-2.87,32.75-.38,3.02-.8,6.04-1.26,9.06-.22,1.46-.45,2.91-.68,4.36-.13.81-.26,1.61-.4,2.42-.05.32-.11.65-.16.97l-.08.48c-.17.55-.14.63.1.24l1.77-.73h-.24c.42.12.84.23,1.26.35l-.2-.14.9.9-.09-.2v2.52l.09-.18c.6-1.21.33-2.7-.9-3.42-1.1-.64-2.82-.32-3.42.9-.72,1.46-.39,3.12,1.11,3.95,1.77.98,3.75-.22,4.3-2.02.41-1.33.5-2.84.72-4.21.26-1.61.51-3.23.76-4.85.91-6.05,1.7-12.11,2.35-18.19,1.33-12.28,2.12-24.62,2.37-36.97.14-6.84.47-13.87-.37-20.67-.17-1.34-1.03-2.5-2.5-2.5-1.22,0-2.67,1.15-2.5,2.5h0Z"/>
      <path class="cls-1" d="M167.2,94.52c8.84-3.64,18.31-5.22,27.76-6.34,10.21-1.21,20.46-2.39,30.73-2.95,2.98-.16,5.96-.26,8.94-.29,1.41-.01,2.82,0,4.22.03.75.01,1.49.03,2.24.06.33.01.66.02.99.04l.5.02c.88.13.58-.3-.88-1.28l.34-1.26.11-.12,1.1-.64-.23.05c-3.13.73-1.81,5.55,1.33,4.82,3.37-.78,2.83-5.43-.16-6.34-1.28-.39-2.78-.29-4.1-.32-1.49-.04-2.98-.06-4.47-.06-5.97,0-11.93.35-17.87.85s-11.71,1.14-17.56,1.79c-5.53.61-11.07,1.24-16.56,2.2-6.07,1.06-12.06,2.57-17.76,4.91-1.25.51-2.14,1.66-1.75,3.08.32,1.18,1.82,2.26,3.08,1.75h0Z"/>
      <path class="cls-2" d="M151.46,22.72l-.19.1c.44,3.71.3,7.26.04,10.99-.02.22-.03.45.04.66.18.55.86.77,1.43.72s1.12-.3,1.69-.35c.86-.08,1.7.27,2.57.32,1.41.08,2.78-.62,4.18-.5.45.04.87-.32,1.03-.75s.14-.9.12-1.35c-.12-2.15-.25-4.29-.37-6.44-.1-1.82-.23-3.71-1.12-5.3-.1-.18-.2-.36-.3-.55-2.72,1.39-5.76,2.13-8.8,2.15-.32,0-.16.03-.32.3Z"/>
      <path class="cls-2" d="M155.56,25.96c-.44.05-.6-.41-.72-.76-.12-.38.04-.96.29-1.29.1-.14.21-.29.33-.41.14-.14.28-.11.48-.11.32,0,.74.03.95.3.13.16.23.46.32.65s.19.43.23.62c.09.43-.08.71-.19,1.1-.1.33-.29.54-.64.57-.16.02-1.09.29-1.04-.08.17-.03.29-.12.45-.18.08.21,0,.29.17.48s.12.24.13.49c.01.34.1.63.1.98,0,.32,0,.64,0,.96,0,.22.1.38.1.59s-.1.37-.1.59c.02,1.33-.94,2.71-1.44,3.95.29-.76.68-1.49,1.15-2.15.11-.16.35-.32.47-.17.67.86,1.21,1.82,1.59,2.83-.23-.33-.47-.65-.7-.98"/>
      <path class="cls-2" d="M154.48,28.83c.4.64,1.29.83,2.01.6s1.29-.78,1.75-1.38c.16.01.14.31-.01.31"/>
      <path class="cls-2" d="M172.29,23.14l2.08-1.1c.19.75.38,1.51.56,2.26.06.25.26.58.49.47,2.12-.98,4.24-1.96,6.35-2.94.23-.11.48-.21.73-.15s.43.38.27.57"/>
      <path class="cls-2" d="M173.75,35.96l.31-.78c.09.64.28,1.26.55,1.85.07.15.22.32.36.25.33-.18.58-.48.79-.79.84-1.22,1.61-2.83,3.09-2.95.45-.04.9.08,1.35.09,1.24,0,2.3-.88,3.51-1.16,1.42-.33,2.92.22,4.06,1.13s1.98,2.12,2.78,3.34c.33.49.82,1.05,1.39.88,1.35-.41,2.41-1.42,3.56-2.24,1.72-1.23,3.72-2.06,5.81-2.39,3.16-.49,6.38.18,9.46,1.06s6.12,1.97,9.3,2.33c2.43.28,5.09.04,6.94-1.56.17-.15.34-.34.3-.56-.09-.43-.74-.29-1.11-.04"/>
      <path class="cls-2" d="M172.69,49.15c1.2-.26,2.21,1.19,3.44,1.12,1-.06,1.63-1.08,2.11-1.96s1.19-1.87,2.2-1.82c1.27.07,1.89,1.75,3.13,2.06.88.22,1.74-.33,2.52-.78,4.66-2.71,10.34-2.89,15.73-2.63s10.88.86,16.09-.53c1.9-.51,3.81-1.29,5.77-1.05"/>
      <path class="cls-2" d="M169.84,63.29c1.4.73,2.37,2.57,3.94,2.4,2.18-.24,2.41-4.03,4.57-4.36,1.16-.18,2.17.79,3.31,1.08,1.85.48,3.63-.83,5.21-1.91,1.66-1.14,3.51-2.11,5.51-2.3,2.12-.2,4.23.48,6.36.56,2.77.1,5.49-.81,8.26-.91,3.31-.11,6.53.95,9.8,1.47s6.93.39,9.47-1.73c.85-.71,1.58-1.63,2.63-1.96.04.17.08.34.12.5"/>
      <path class="cls-2" d="M167.11,76.74c1.73.63,3.71.54,5.38-.23,1.85-.86,3.34-2.53,5.34-2.95,1.56-.33,3.16.15,4.76.26,2.13.14,4.31-.43,6.09-1.61,1.72-1.13,3.16-2.83,5.16-3.31.81-.19,1.65-.17,2.48-.14,5.29.17,10.58.33,15.87.5,2.8.09,5.63.17,8.38-.4,3.98-.83,7.58-3.01,11.56-3.84"/>
    </g>
    <g>
      <path class="cls-1" d="M75.37,44.36l.13-.16-1.1.64-.24.04-1.26-.34c-.57-.29-.65-.98-.39.08.07.3.15.61.22.91.16.69.31,1.37.45,2.06.3,1.46.56,2.92.77,4.4.39,2.79.57,5.62.51,8.43s-.35,5.44-1,8.09c-.03.14-.2.59-.2.79,0,.06-.03.12-.08.16-.39.6.14.55,1.6-.16-.16-.47-1.1-1.17-1.42-1.52-1.04-1.11-2.07-2.23-3.11-3.34-2.2-2.36-5.73,1.18-3.54,3.54,1.5,1.61,2.92,3.36,4.53,4.86s3.98,1.76,5.59.06c1.36-1.44,1.65-3.7,1.97-5.57.36-2.13.59-4.29.65-6.45.13-4.28-.33-8.57-1.09-12.78-.35-1.91-.65-3.95-1.27-5.79-.71-2.11-3.56-3.53-5.25-1.5-.86,1.04-1.02,2.52,0,3.54.89.89,2.67,1.04,3.54,0h0Z"/>
      <g>
        <path class="cls-1" d="M6.84,23.08c.73,1.78,1.29,3.62,1.67,5.5l1.75-3.08-.07.02.66-.09c-.08.01-.15.01-.23,0l.66.09c-.05,0-.1-.02-.15-.04l.6.25c-.07-.03-.13-.07-.2-.12l.51.39-.06-.05c-.47-.45-1.11-.73-1.77-.73-.61,0-1.35.27-1.77.73s-.76,1.1-.73,1.77.25,1.31.73,1.77c.85.81,2,1.12,3.14.83.58-.15,1.21-.62,1.49-1.15.33-.62.39-1.24.25-1.93-.38-1.88-.94-3.72-1.67-5.5-.08-.33-.23-.61-.45-.85-.18-.27-.41-.49-.7-.64-.54-.31-1.33-.45-1.93-.25s-1.19.57-1.49,1.15-.5,1.32-.25,1.93h0Z"/>
        <path class="cls-1" d="M3.17,37.52c2.15-.91,4.43-1.29,6.75-.84l-1.75-3.08c-2.36,11.53-4.18,23.17-5.47,34.86-.23,2.06,2.97,3.43,4.27,1.77,4.65-5.94,8.58-12.34,11.64-19.24.55-1.23.36-2.69-.9-3.42-1.06-.62-2.87-.34-3.42.9-2.87,6.48-6.49,12.65-10.86,18.23l4.27,1.77c1.25-11.25,3.02-22.44,5.29-33.53.25-1.24-.35-2.81-1.75-3.08-3.17-.61-6.41-.42-9.41.84-1.24.52-2.14,1.65-1.75,3.08.32,1.17,1.82,2.27,3.08,1.75h0Z"/>
        <path class="cls-1" d="M25.01,32.8c1.11-.68,2.23-1.35,3.43-1.88-.36.16.33-.13.36-.14.32-.12.64-.22.97-.31.24-.07.49-.12.73-.17.3-.05.33-.06.07-.02.16-.02.33-.03.49-.03.29,0,.58,0,.87.03.18.02.17.02-.04,0,.15.03.3.06.45.1.14.04.27.08.4.13-.27-.11-.28-.1-.03.03l.18.11c-.23-.18-.25-.17-.05.02-.13-.1-.21-.24-.25-.4-.01-.28-.02-.27-.02.03.03-.24.02-.26-.02-.08-.06.16-.04.15.04-.03-.21.55-.58,1.07-.91,1.55-.15.23-.32.45-.47.68-.18.23-.19.25-.04.06-.1.12-.19.25-.29.37-.35.43-.71.84-1.09,1.24-.76.81-1.57,1.56-2.42,2.28-.42.36-.86.71-1.3,1.06.35-.28-.38.29-.45.34-.19.14-.39.29-.58.43-.97.7-1.95,1.38-2.94,2.05-1.04.71-1.53,1.93-1.02,3.12.46,1.08,1.77,1.86,2.95,1.45,2.82-.98,5.64-1.96,8.46-2.93l-3.08-1.75c-.02-.3.03-.6.13-.88-.68,1.12-.28,2.8.9,3.42s2.7.3,3.42-.9c.54-.89.7-1.97.37-2.97-.4-1.22-1.75-2.21-3.08-1.75-2.82.98-5.64,1.96-8.46,2.93l1.93,4.57c3.63-2.47,7.33-5.06,10.08-8.54,1.54-1.95,3.59-4.62,2.63-7.26s-4.1-3.72-6.77-3.47c-2.97.27-5.59,1.67-8.09,3.2-1.12.68-1.64,2.27-.9,3.42s2.23,1.63,3.42.9h0Z"/>
        <path class="cls-1" d="M21.62,41.48c-2.8,4.9-4.41,10.55-4.37,16.21.04,4.85,1.57,9.94,5.78,12.75,4.6,3.07,11.18,2.34,16.37,1.78,2.69-.29,6.08-.35,8.35-2.01s3.16-4.65,2.96-7.42c-.24-3.39-1.08-6.7-1.3-10.11s-.16-6.98.17-10.46c.13-1.35-1.24-2.5-2.5-2.5-1.46,0-2.37,1.15-2.5,2.5-.49,5.25-.34,10.5.38,15.73.3,2.14,1.26,4.81.62,6.95-.59,1.99-2.85,1.88-4.6,2.12-2.51.35-5.05.53-7.59.59-2.07.05-4.15.02-6.13-.64-3.55-1.17-4.81-4.95-4.98-8.37-.26-5.09,1.15-10.2,3.66-14.61,1.6-2.8-2.72-5.32-4.32-2.52h0Z"/>
        <path class="cls-1" d="M61.01,27.78c2.82-1.16,5.64-.98,8.69-1.4,1.67-.23,3.19-.63,4.73-1.32.64-.29,1.27-.63,1.91-.91.28-.12.43-.18.79-.29.19-.06.38-.11.57-.14-.25.02-.49-.05-.71-.21l-.9-.9c-.43-.6.06-1.62-.27-.85-.09.21-.18.41-.27.62-.28.67-.56,1.33-.83,2-.44,1.1-.86,2.21-1.25,3.32s-.73,2.13-1.06,3.21c-.18.59-.36,1.19-.52,1.78-.08.27-.15.54-.23.82-.11.38-.45.76.13.01-.84,1.06-1.03,2.5,0,3.54.87.87,2.69,1.07,3.54,0,1.11-1.41,1.39-3.14,1.9-4.82s1.04-3.22,1.63-4.8c.28-.74.57-1.47.86-2.2.32-.79.78-1.58,1.01-2.4.64-2.19-.92-4.31-3.27-4.11-1.72.15-3.23.88-4.76,1.62-1.1.53-2.54.95-3.66,1.11-3.14.44-6.39.26-9.38,1.49-1.25.51-2.14,1.66-1.75,3.08.32,1.18,1.82,2.26,3.08,1.75h0Z"/>
        <path class="cls-1" d="M59.64,31.49l-.13.12,1.1-.64,1.28.18-.6,4.57c.39-.1.78-.18,1.17-.25.17-.03.35-.06.52-.09.18-.03.17-.03,0,0l.26-.03c.75-.07,1.5-.13,2.25-.16,1.6-.06,3.21-.04,4.81-.1.75-.03,1.51-.07,2.26-.14.87-.09,1.86-.13,2.7-.4,1.35-.44,2.31-1.65,2.11-3.11-.11-.85-.56-1.48-1.25-1.96s-1.38-.43-2.16-.31c-1.3.19-2.13,1.9-1.75,3.08.46,1.42,1.68,1.95,3.08,1.75l.12-.02-1.93-.25.11.08-.9-.9.06.13-.25-1.93-.02.14.64-1.1c.71-.34.82-.45.34-.33-.13.02-.26.04-.39.06-.18.03-.18.03,0,0-.18.02-.35.04-.53.06-.53.05-1.06.09-1.59.12-1.2.06-2.4.06-3.61.08-2.48.03-4.98.16-7.39.75-.96.24-1.66,1.13-1.79,2.08-.14,1.04.35,1.9,1.19,2.49,1.2.84,2.78.49,3.8-.44s.96-2.65,0-3.54c-1.04-.95-2.5-.94-3.54,0h0Z"/>
        <path class="cls-1" d="M47.56,45.38v-.12c.09-1.18-.84-2.02-1.83-2.41-2.69-1.07-4.64,2.58-2.76,4.5,1.65,1.68,4.91.6,6.94.29,4.42-.67,8.81-1.53,13.2-2.35,8.83-1.65,17.72-3.1,26.73-2.44l-.66-4.91c-1.54.4-3.09.8-4.63,1.2-3.11.81-1.79,5.63,1.33,4.82,1.54-.4,3.09-.8,4.63-1.2,2.85-.74,2.06-4.71-.66-4.91-7.59-.56-15.17.36-22.65,1.64-3.7.63-7.38,1.36-11.07,2.04-1.88.35-3.77.69-5.66.99-.87.14-1.73.28-2.6.4-.55.08-1.95.45-2.37.35l1.1.64-.19-.21.73,1.77.02-.15-1.24,2.16-.31.14h-1.33l.11.05-1.84-2.41v.12c-.1,1.35,1.2,2.5,2.49,2.5,1.43,0,2.41-1.15,2.5-2.5h0Z"/>
        <path class="cls-1" d="M68.61,56.23c.06-.04.86-.65.91-.53.01.03-.3.04-.34,0-.27-.24-.99-.87-.62-1.1-.08.05-.27.73-.36.85-.31.43-.74.79-1.14,1.14-1.56,1.37-3.41,2.42-5.26,3.35-3.91,1.97-8.07,3.4-11.86,5.62l2.52,4.32c1.13-.67,2.27-1.35,3.4-2.02,2.76-1.64.25-5.97-2.52-4.32-1.13.67-2.27,1.35-3.4,2.02-2.76,1.64-.26,5.95,2.52,4.32,4.98-2.92,10.67-4.46,15.46-7.7,2.53-1.71,5.65-4.12,5.59-7.52-.03-1.88-1.4-3.43-3.21-3.82-2.05-.44-3.72.63-5.24,1.85-1.05.84-.88,2.65,0,3.54,1.04,1.04,2.48.85,3.54,0h0Z"/>
        <path class="cls-1" d="M85.84,51.82h-.11c-.42-.1-.84-.21-1.26-.33l-.28-.24-.34-1.26c.05.72-1.01,2.01-1.41,2.61-.63.96-1.33,1.84-2.09,2.69-1.04,1.16-.97,3.12.51,3.93,11.46,6.28,23.46,11.55,35.83,15.77,3.05,1.04,4.36-3.79,1.33-4.82-11.97-4.08-23.55-9.19-34.64-15.26l.51,3.93c1.69-1.88,3.27-3.98,4.36-6.27.62-1.32.93-2.77.14-4.12-.75-1.27-2.48-2.01-3.87-1.45-1.25.5-2.13,1.67-1.75,3.08.33,1.19,1.81,2.25,3.08,1.75h0Z"/>
      </g>
    </g>
  </g>
</svg>