<?xml version="1.0" encoding="UTF-8"?>
<svg id="_图层_2" data-name="图层 2" xmlns="http://www.w3.org/2000/svg" viewBox="0 0 223.42 110.39">
  <defs>
    <style>
      .cls-1 {
        fill: #231815;
      }
    </style>
  </defs>
  <g id="_图层_1-2" data-name="图层 1">
    <path class="cls-1" d="M9.44,14.88c-.89,2.14-2.16,4.88-3.33,7.2-1.25,2.47-2.59,4.89-4,7.27-.67,1.12-.29,2.79.9,3.42s2.7.3,3.42-.9c3-5.03,5.59-10.27,7.84-15.67.5-1.21-.54-2.8-1.75-3.08-1.46-.33-2.53.45-3.08,1.75h0Z"/>
    <path class="cls-1" d="M8.76,27.49c6.33.4,11.66-3.42,17.26-5.35l-2.82-3.67c-2.37,3.5-4.89,6.7-7.73,9.85-.91,1-.99,2.55,0,3.54.92.92,2.63,1.01,3.54,0,3.09-3.41,5.93-7.05,8.51-10.86,1.2-1.77-.8-4.37-2.82-3.67-2.84.98-5.49,2.38-8.25,3.55-2.41,1.02-5.02,1.79-7.68,1.62-1.31-.08-2.56,1.21-2.5,2.5.06,1.42,1.1,2.41,2.5,2.5h0Z"/>
    <path class="cls-1" d="M2.58,33.49c-.9,6.49-1.6,13.01-2.05,19.55-.22,3.2-.38,6.4-.48,9.61s-.07,6.31.65,9.4,5.55,1.81,4.82-1.33c-.64-2.73-.56-5.54-.47-8.32.1-3.12.26-6.24.48-9.36.42-6.09,1.03-12.17,1.87-18.22.19-1.34-.32-2.68-1.75-3.08-1.17-.32-2.89.4-3.08,1.75h0Z"/>
    <path class="cls-1" d="M7.83,42.42c3.22-3.04,7.19-5.14,11.31-6.68,2.16-.81,4.39-1.59,6.65-2.05,1.55-.31,3.49-.46,4.72.72s1.34,3.03,1.41,4.56c.11,2.43-.03,4.89-.07,7.32-.09,5.46-.18,10.91-.27,16.37-.05,3.06-.08,6.12-.15,9.18-.01.5-.17,1.07-.16,1.55s-.11,0,0,.09c-.12-.08.55.05.55.04.02-.12-1.52-1.1-1.68-1.22-.62-.46-1.24-.92-1.85-1.38-1.08-.81-2.79-.18-3.42.9-.75,1.27-.19,2.61.9,3.42,2.35,1.75,4.92,4.39,8.01,2.59s2.64-5.52,2.69-8.47c.11-6.61.22-13.23.33-19.84.05-3.1.15-6.2.15-9.3,0-2.46-.24-5-1.37-7.22-2.88-5.71-9.55-4.77-14.61-3.16-6.08,1.93-11.99,4.63-16.68,9.05-2.35,2.21,1.19,5.74,3.54,3.54h0Z"/>
    <path class="cls-1" d="M8.01,52.23c8.3-.47,16.61-.94,24.91-1.4,2.06-.12,3.43-2.71,1.77-4.27-1.03-.96-2.49-1.28-3.7-.44-1.11.77-1.61,2.19-.9,3.42.64,1.1,2.3,1.67,3.42.9l.22-.15-1.26.34.27.02-1.77-.73.19.18,1.77-4.27c-8.3.47-16.61.94-24.91,1.4-3.2.18-3.22,5.18,0,5h0Z"/>
    <path class="cls-1" d="M5.79,64.48c8.67-1.93,17.48-3,26.36-3.22,2.83-.07,3.38-4.07.66-4.91-.23-.07-.46-.14-.7-.22-3.08-.95-4.4,3.87-1.33,4.82.23.07.46.14.7.22l.66-4.91c-9.31.23-18.59,1.38-27.69,3.4-3.14.7-1.81,5.52,1.33,4.82h0Z"/>
    <path class="cls-1" d="M18.42,40.61l.11-.03c1.04-.28,1.86-1.32,1.84-2.41s-.48-1.83-1.37-2.41c-.98-.63-2.21-.32-3.03.39-1.47,1.27-1.19,4.14-1.36,5.93-.2,2.05-.39,4.1-.59,6.16-.38,4.02-.77,8.04-1.15,12.07s-.77,7.85-.86,11.8c-.04,1.89-.18,4.51,2.13,5.14s4.72-2.04,3.16-4.12c-.81-1.08-2.16-1.63-3.42-.9-1.06.62-1.71,2.33-.9,3.42l.1.14-.25-1.93-.07.18.64-1.1-.17.13,1.77-.73h-.21c.59.24,1.18.48,1.77.73l-.2-.2.64,1.1c-.26-.86.01-2.68.06-3.79.07-1.53.18-3.05.3-4.57.25-3,.55-6,.84-9s.57-5.91.85-8.87c.15-1.56.3-3.12.45-4.68.13-1.4.1-2.95.43-4.31l-.64,1.1.2-.17-3.03.39.13.08-1.24-2.16v.17c.62-.8,1.23-1.61,1.84-2.41l-.11.03c-3.1.84-1.79,5.66,1.33,4.82h0Z"/>
    <path class="cls-1" d="M61.75,12.5c-4.56,8.48-9.42,16.8-14.59,24.92-1.73,2.72,2.59,5.23,4.32,2.52,5.17-8.13,10.03-16.44,14.59-24.92,1.52-2.83-2.79-5.36-4.32-2.52h0Z"/>
    <path class="cls-1" d="M55.91,33.35c3.85-1.2,7.31-3.25,10.7-5.4,1.61-1.02,3.21-2.06,4.87-3,.85-.48,1.71-.95,2.59-1.37.38-.18.75-.35,1.14-.51.16-.07.47-.12.61-.23.2-.17-.04.05-.22-.02l-1.1-.64.18.16-.64-2.43c-.97,2.41-1.98,4.8-3.07,7.15-.82,1.77-1.64,3.48-3.43,4.26-1.24.54-1.52,2.35-.9,3.42.75,1.28,2.18,1.44,3.42.9,2.45-1.07,3.99-3.44,5.09-5.76,1.34-2.83,2.54-5.73,3.71-8.63.31-.76-.04-1.9-.64-2.43-2.13-1.87-4.63-.51-6.81.54-1.97.96-3.85,2.1-5.7,3.27-3.55,2.24-7.07,4.66-11.11,5.92-3.06.95-1.76,5.78,1.33,4.82h0Z"/>
    <path class="cls-1" d="M57.75,41.55c5.68-4.27,12.18-7.24,19.16-8.62.73-.14,1.14-.1,1.75-.21-.17-.03-.1,0,.2.07-.36-.1-.56-.34-.62-.7-.13-.59-.25-.6-.35-.04-.1.25-.2.5-.31.76-.64,1.57-1.28,3.14-1.99,4.68-1.44,3.12-3.11,6.18-5.39,8.78-.89,1.01-1,2.54,0,3.54.91.91,2.64,1.02,3.54,0,2.94-3.35,5.06-7.21,6.84-11.28.82-1.87,1.97-3.96,2.39-5.97.56-2.69-1.5-4.55-4.01-4.79-2.02-.19-4.25.49-6.19,1s-3.95,1.17-5.86,1.94c-4.17,1.68-8.08,3.83-11.68,6.53-1.08.81-1.63,2.16-.9,3.42.62,1.06,2.33,1.71,3.42.9h0Z"/>
    <path class="cls-1" d="M60.85,55.19l6.51-3.75c1.04-.6,2.09-1.2,3.13-1.81,1.28-.75,2.28-1.68,2.76-3.12.41-1.24-.48-2.79-1.75-3.08-1.38-.31-2.63.42-3.08,1.75.17-.34.19-.4.06-.16.24-.29.28-.33.1-.13-.08.08-.15.15-.24.22.29-.22.33-.25.11-.1-.44.26-.88.53-1.33.79l-2.87,1.66-5.94,3.42c-1.13.65-1.63,2.29-.9,3.42s2.21,1.6,3.42.9h0Z"/>
    <path class="cls-1" d="M68.28,34.13c-.92-.15-1.73-.11-2.57.34-.6.32-1.09.84-1.45,1.4-.58.9-.72,2.05-.93,3.07-.4,1.89-.8,3.78-1.21,5.67-.27,1.28.38,2.76,1.75,3.08,1.26.29,2.78-.38,3.08-1.75.32-1.52.65-3.05.97-4.57.16-.73.31-1.47.47-2.2.04-.18.07-.36.12-.54.02-.07.04-.15.06-.22.09-.25.06-.19-.09.18.03-.07.07-.13.11-.2.11-.17.05-.09-.19.25-.35.25-.42.3-.21.16-.42.15-.5.19-.25.13l-.66.09c.08-.01.16-.02.24-.01l-.66-.09.12.02c.68.11,1.31.11,1.93-.25.52-.3,1.01-.9,1.15-1.49.27-1.2-.37-2.85-1.75-3.08h0Z"/>
    <path class="cls-1" d="M56.94,38.3c-1.64-1.08-3.73-.57-4.97.84s-1.54,3.54-2.05,5.27c-1.09,3.7-2.14,7.42-2.98,11.19s-1.64,7.42.94,10.64c2,2.49,4.6,4.81,7.22,6.62,3,2.08,6.4,3.01,10.03,2.89,3.84-.13,7.71-.69,11.52-1.21s7.45-1.14,11.12-2.02c1.68-.4,3.34-.85,4.99-1.37s3.97-.99,5.24-2.35c1.61-1.72,1.18-3.9.57-5.93s-1.31-4.08-2.07-6.09c-1.49-3.93-3.23-7.75-5.21-11.45-1.52-2.84-5.84-.31-4.32,2.52,2.83,5.29,5.13,10.82,6.85,16.57.05.16.19,1.01.3,1.06-.12-.05.21.29.15.03-.08-.37.62-.17-.16-.08-.26.03-.66.23-.89.31-1.48.51-2.99.96-4.5,1.37-3.03.82-6.11,1.46-9.2,1.97s-5.94.87-8.92,1.18-6.12.93-8.99.19c-2.41-.62-4.45-2.14-6.27-3.79-.89-.81-1.75-1.66-2.59-2.51s-1.65-1.6-1.7-2.85c-.07-1.53.44-3.15.77-4.62.39-1.73.82-3.44,1.28-5.15s.95-3.41,1.45-5.11c.25-.85.5-1.7.75-2.55.09-.31.18-.62.28-.93.05-.16.1-.31.14-.47.24-.48-.19-.44-1.28.12,2.7,1.77,5.2-2.56,2.52-4.32h0Z"/>
    <path class="cls-1" d="M149.87,23.63c.25.17.12-.7.19-1.05.25-1.24.72-2.47,1.13-3.66.84-2.46,1.75-4.91,2.86-7.27.29-.62.64-1.6,1.27-1.95.73-.41,2.07.12,2.84.28,2.12.45,4.31.94,6.25,1.93s3.4,2.46,4.5,4.41c1.17,2.07,2.32,4.44,2.67,6.81s-.55,4.25-1.99,6-3.1,3.6-5.15,4.51c-2.35,1.04-4.91.09-7.05-1.02-1.48-.77-3.97-2.03-4.11-3.94-.09-1.35-1.08-2.5-2.5-2.5-1.28,0-2.59,1.15-2.5,2.5.23,3.27,2.29,5.6,4.95,7.32,2.8,1.81,6.32,3.31,9.71,3.07s6.29-2.3,8.65-4.73,4.42-5.07,4.92-8.42c.53-3.63-.8-7.08-2.34-10.3-1.41-2.97-3.26-5.6-6.07-7.38-2.59-1.64-5.64-2.45-8.6-3.09-1.64-.35-3.36-.79-5.04-.43s-2.98,1.53-3.92,2.94c-1.01,1.49-1.62,3.29-2.3,4.94-.76,1.85-1.46,3.73-2.09,5.64-1.09,3.3-2.27,7.39,1.2,9.71,2.68,1.79,5.19-2.54,2.52-4.32h0Z"/>
    <path class="cls-1" d="M162.63,34.14c-1.37,8.85-2.41,17.75-3.1,26.67-.19,2.48,3.54,3.4,4.66,1.26.12-.22.23-.44.35-.66,1.49-2.85-2.82-5.38-4.32-2.52-.12.22-.23.44-.35.66l4.66,1.26c.65-8.48,1.62-16.94,2.92-25.34.21-1.33-.34-2.69-1.75-3.08-1.19-.33-2.87.4-3.08,1.75h0Z"/>
    <path class="cls-1" d="M157.84,64.85c-.06,2.33-.89,4.61-1.62,6.81s-1.58,4.46-2.41,6.68c-1.67,4.49-3.28,9.02-4.08,13.75-.41,2.39,2.25,4.25,4.18,2.43,1.56-1.47,2.91-3.16,4.03-4.99,1.67-2.76-2.65-5.27-4.32-2.52-.91,1.49-1.97,2.79-3.25,3.98l4.18,2.43c.83-4.89,2.52-9.55,4.24-14.18s3.92-9.45,4.05-14.38c.08-3.22-4.92-3.22-5,0h0Z"/>
    <path class="cls-1" d="M165.66,72.75c-1.56.59-1.24-.99-.93.09.12.42.34.85.5,1.25.38.98.75,1.96,1.11,2.95.68,1.9,1.31,3.83,1.89,5.77,1.17,3.95,2.11,7.97,2.83,12.03l4.82-1.33c-.26-.8-.51-1.61-.77-2.41-.97-3.05-5.8-1.75-4.82,1.33.26.8.51,1.61.77,2.41.99,3.11,5.38,1.81,4.82-1.33-.88-4.94-2.08-9.82-3.63-14.6-.76-2.35-1.61-4.68-2.53-6.97-.87-2.16-2.55-5.07-5.39-3.99-1.26.48-2.13,1.69-1.75,3.08.33,1.21,1.81,2.23,3.08,1.75h0Z"/>
    <path class="cls-1" d="M158.93,46.14c-.91-.96-2.34-1.25-3.57-.78-1.11.42-1.89,1.18-2.69,2.02-1.34,1.42-2.64,2.88-3.87,4.4-2.58,3.16-4.93,6.49-7.02,9.99-.67,1.12-.29,2.79.9,3.42s2.71.3,3.42-.9c.84-1.41,1.71-2.79,2.64-4.14.46-.68.93-1.34,1.41-2,.27-.37.54-.73.81-1.09.11-.14.22-.29.33-.43-.18.23.15-.19.19-.25,1.01-1.29,2.06-2.54,3.15-3.76.54-.61,1.1-1.21,1.66-1.8.26-.28.54-.55.8-.82-.19.2-.21.07,0,.03-.63.12-1.04.36-1.71-.35.9.95,2.64.97,3.54,0,.94-1.02.96-2.52,0-3.54h0Z"/>
    <path class="cls-1" d="M166.81,50.84c2.72,2.68,5.52,5.29,8.39,7.8.5.44,1.08.73,1.77.73.61,0,1.35-.27,1.77-.73.87-.94,1.05-2.62,0-3.54-2.87-2.52-5.67-5.12-8.39-7.8-.93-.92-2.62-1-3.54,0s-.99,2.55,0,3.54h0Z"/>
    <path class="cls-1" d="M196.22,22.86c-1.1.59.44-.13.39-.06,0,0-.06-.03-.06-.03.05-.12-.26-.83-.28-1.05-.13-1.28-.02-2.65.07-3.93.14-2.14.53-4.34,1.72-6.17,2.41-3.74,8.57-4.11,12.5-3.31,4.19.85,6.91,4.52,7.06,8.74.18,4.69-2.62,9.86-6.36,12.64-5.04,3.75-10.44-1.9-13.67-5.38-2.2-2.36-5.73,1.18-3.54,3.54,2.49,2.67,5.11,5.38,8.51,6.86s7.19,1.67,10.43-.2c2.87-1.65,5.2-4.55,6.85-7.37,1.77-3.02,2.9-6.57,2.77-10.09-.25-6.52-4.57-12.49-11.17-13.65s-14.83.08-18.17,6.49c-1.69,3.24-2,7-2.02,10.6-.01,2.07.24,4.29,1.79,5.82s3.8,1.88,5.71.86c2.84-1.52.32-5.84-2.52-4.32h0Z"/>
    <path class="cls-1" d="M213.19,34.59l.08-.07c.66-.56.88-1.64.64-2.43-.2-.69-.63-1.37-1.31-1.68-1.14-.52-2.07-.36-3.03.39s-1.09,2.22-1.33,3.33-.46,2.19-.65,3.3c-.42,2.43-.75,4.87-1,7.32-.49,4.79-.67,9.6-.77,14.41l4.91-.66c-.17-1.01-.33-2.03-.5-3.04-.22-1.33-1.87-2.08-3.08-1.75-1.42.39-1.96,1.74-1.75,3.08.17,1.01.33,2.03.5,3.04.47,2.86,4.85,2.06,4.91-.66.1-4.41.25-8.82.66-13.21.19-2.09.44-4.17.77-6.24s.59-4.37,1.33-6.34l-.64,1.1.17-.13-3.03.39.12.06-1.15-1.49.04.13.64-2.43-.08.07c-1.03.87-.9,2.64,0,3.54,1.02,1.02,2.5.87,3.54,0h0Z"/>
    <path class="cls-1" d="M208.27,44.22l-.44-.39c-1.05-.95-2.47-.93-3.54,0-3.93,3.43-7.36,7.41-10.21,11.77-.68,1.04-.29,2.5.64,3.23s2.47.75,3.28-.2c.49-.57.98-1.14,1.47-1.71.85-.99,1.05-2.58,0-3.54-.94-.86-2.62-1.06-3.54,0-.49.57-.98,1.14-1.47,1.71l3.93,3.03c.67-1.02,1.36-2.02,2.1-2.99.1-.13.2-.26.3-.39-.21.26-.13.16.03-.04.18-.23.37-.46.56-.69.39-.48.8-.96,1.21-1.43,1.62-1.86,3.38-3.6,5.24-5.22h-3.54l.44.39c.97.88,2.59,1.03,3.54,0,.88-.96,1.04-2.6,0-3.54h0Z"/>
    <path class="cls-1" d="M208.07,49.28c2.01.84,4.08,1.51,6.2,2.01.94.22,1.88.42,2.82.61.29.06-.47-.23-.22-.1.1.05.32.23.03-.02-.18-.15-.2-.16-.06-.03l-.23-.31c-.13-.24-.16-.51-.18-.78.02.34.03-.23.04-.29.06-.24.22-.48.39-.65-.23.23.29-.17.4-.21.12-.07.25-.1.39-.09.25-.02.28-.03.08-.02-1.31-.02-2.56,1.17-2.5,2.5s1.1,2.48,2.5,2.5c2.26.04,4.24-2.28,3.59-4.52-.5-1.74-2.02-2.67-3.72-2.99-2.82-.53-5.56-1.32-8.22-2.42-.56-.23-1.43-.04-1.93.25-.52.3-1.01.9-1.15,1.49-.15.64-.11,1.36.25,1.93s.86.88,1.49,1.15h0Z"/>
    <path class="cls-1" d="M203.85,59.86c-2.61,3.91-4.95,7.99-6.97,12.23-.5,1.05-.98,2.1-1.44,3.17s-.98,2.12-.94,3.34c.06,1.58,1.28,3.15,2.96,3.15,1.32,0,2.76-.99,3.57-1.97.86-1.04,1.02-2.52,0-3.54-.89-.89-2.67-1.04-3.54,0,0,0-.49.52-.3.37-.08.06-.66.31-.4.22l1.93.25c.53,1.53.79,1.93.77,1.19-.04.3-.02.3.05.01-.1.19-.07.12.08-.21.09-.2.18-.41.26-.61.31-.71.63-1.41.96-2.12.7-1.5,1.44-2.99,2.22-4.45,1.56-2.93,3.27-5.77,5.11-8.53.75-1.12.22-2.77-.9-3.42-1.23-.72-2.67-.23-3.42.9h0Z"/>
    <path class="cls-1" d="M209.75,70.66c3.28.27,4.19,5.47,4.91,7.88,1.28,4.3,2.57,8.6,3.85,12.9l4.57-1.93c-.31-.44-.61-.88-.92-1.31-.77-1.1-2.19-1.62-3.42-.9-1.09.64-1.68,2.31-.9,3.42.31.44.61.88.92,1.31.71,1.02,1.92,1.55,3.12,1.02,1.11-.49,1.81-1.73,1.45-2.95-1.48-4.98-2.95-9.96-4.45-14.93-1.38-4.56-3.86-9.08-9.13-9.52-1.35-.11-2.5,1.23-2.5,2.5,0,1.44,1.15,2.39,2.5,2.5h0Z"/>
    <path class="cls-1" d="M181.81,32.16c-2.87.68-5.65-1.18-7.18-3.51-1.86-2.83-2.78-6.38-2.92-9.74-.24-6.04,2.99-13.18,9.73-13.87,3.6-.37,7.18,1.07,10.31,2.69s5.92,3.5,7.52,6.67c2.96,5.84,1.49,13.5-2.33,18.58-2.05,2.74-5.08,5.1-8.54,5.62-3.15.47-6.99-1.1-6.64-4.78.13-1.35-1.24-2.5-2.5-2.5-1.46,0-2.37,1.15-2.5,2.5-.45,4.7,3.37,8.74,7.81,9.6s9.02-.73,12.59-3.56c6.9-5.46,10-15.15,8.01-23.65-1.09-4.65-3.86-8.35-7.81-10.98S188.8.54,184.11.07s-8.82,1.15-12.02,4.29-4.92,7.44-5.31,11.89c-.81,9.16,4.86,23.44,16.36,20.72,3.13-.74,1.8-5.56-1.33-4.82h0Z"/>
    <path class="cls-1" d="M183.83,41.6c.35,4.37.28,8.79.36,13.17.04,2.21.08,4.43.12,6.64.03,1.66.44,3.72-.61,5.13l4.57.6c-.1-.69-.07-1.4-.02-2.08.09-1.35-1.21-2.5-2.5-2.5-1.43,0-2.41,1.15-2.5,2.5-.08,1.16.03,2.26.2,3.41.14.95,1.21,1.69,2.08,1.79,1.07.13,1.87-.35,2.49-1.19,1.33-1.78,1.35-4.05,1.32-6.18-.04-2.38-.09-4.76-.13-7.14-.08-4.71,0-9.46-.38-14.15-.11-1.35-1.07-2.5-2.5-2.5-1.27,0-2.61,1.15-2.5,2.5h0Z"/>
    <path class="cls-1" d="M184.95,49.23c-3.14,1.94-5.42,4.83-7.39,7.9-.95,1.48-1.83,2.99-2.79,4.46-1.02,1.56-1.82,2.64-3.13,3.95-.93.92-.99,2.62,0,3.54,1.04.96,2.49.93,3.54,0,.39-.35.77-.69,1.16-1.04.98-.88.96-2.66,0-3.54-1.04-.96-2.49-.93-3.54,0-.39.35-.77.69-1.16,1.04l3.54,3.54c2.57-2.56,4.37-5.7,6.28-8.75.42-.68.86-1.35,1.31-2,.54-.78.77-1.1,1.29-1.71,1.12-1.32,2.15-2.28,3.42-3.06,1.11-.69,1.64-2.27.9-3.42s-2.23-1.63-3.42-.9h0Z"/>
    <path class="cls-1" d="M185.92,58.47c-.23-.02-.28-.06-.03,0,.14.04.28.07.41.11.61.16-.21-.14.1.02.13.07.26.13.38.2s.25.14.37.22c.04.03.41.28.19.12-.25-.18.25.22.25.22.11.1.22.2.32.31.21.21.41.44.61.67.12.14.19.23.03.03.11.15.22.31.33.46.37.54.72,1.1,1.06,1.65.72,1.18,1.41,2.38,2.07,3.6.34.63.67,1.26,1,1.89.17.34.34.67.51,1.01.07.15.15.3.22.45.38.79-.26-.07.01-.84l.64-1.1.27-.2,1.26-.34h-.15c-1.31-.05-2.56,1.17-2.5,2.5.06,1.39,1.1,2.46,2.5,2.5,1.84.06,3.11-1.63,2.88-3.37-.14-1.04-.8-2.08-1.28-3.01-.85-1.68-1.77-3.34-2.73-4.96s-1.91-3.18-3.21-4.48c-1.54-1.53-3.39-2.44-5.55-2.67-1.3-.14-2.56,1.25-2.5,2.5.07,1.47,1.1,2.35,2.5,2.5h0Z"/>
    <path class="cls-1" d="M183.84,67.78c-3.1,6.62-6.2,13.24-9.3,19.85s-6.32,12.65-7.78,19.52c-.41,1.94,1.76,4.18,3.67,2.82,1.31-.93,2.39-2.03,3.13-3.48,1.46-2.86-2.86-5.4-4.32-2.52-.34.67-.71,1.25-1.34,1.69l3.67,2.82c1.41-6.63,4.64-12.69,7.49-18.78,3.03-6.47,6.06-12.94,9.09-19.4.57-1.22.34-2.7-.9-3.42-1.08-.63-2.85-.33-3.42.9h0Z"/>
    <path class="cls-1" d="M186.96,77.81c.83-.3,1.56.64,2.09,1.2.98,1.05,1.87,2.21,2.77,3.33,1.82,2.27,3.47,4.7,4.69,7.35,1.29,2.8,2.2,5.8,3.25,8.69,1.15,3.2,2.3,6.4,3.46,9.61l1.75-3.08-.29.06h1.4c.3.29.6.59.9.89l-.16-.25.34,1.26-.03-.29c-.13-1.34-1.06-2.5-2.5-2.5-1.25,0-2.63,1.15-2.5,2.5.21,2.26,1.91,3.61,4.17,3.15,1.25-.25,2.18-1.87,1.75-3.08-1.29-3.59-2.58-7.19-3.88-10.78s-2.38-7.09-4.15-10.36c-1.65-3.05-3.86-5.78-6.06-8.45-2.01-2.43-4.82-5.37-8.32-4.09-1.27.46-2.12,1.7-1.75,3.08.34,1.22,1.8,2.21,3.08,1.75h0Z"/>
  </g>
</svg>