<?xml version="1.0" encoding="UTF-8"?>
<svg id="_图层_2" data-name="图层 2" xmlns="http://www.w3.org/2000/svg" viewBox="0 0 263.05 191.12">
  <defs>
    <style>
      .cls-1 {
        fill: #231815;
      }
    </style>
  </defs>
  <g id="_图层_1-2" data-name="图层 1">
    <g>
      <g>
        <g>
          <path class="cls-1" d="M46.01,85.85c1.92,13.37.57,27.11-3.69,39.91-1.02,3.06,3.81,4.37,4.82,1.33,4.56-13.7,5.74-28.29,3.69-42.57-.19-1.34-1.89-2.07-3.08-1.75-1.44.39-1.94,1.73-1.75,3.08h0Z"/>
          <g>
            <g>
              <g>
                <path class="cls-1" d="M251.44,11.06c-3.07,23.03-1.17,46.3,1.61,69.26,1.4,11.54,3.17,23.05,4.28,34.62.56,5.78.88,11.6.64,17.41s-.93,11.07-1.76,16.56c-.95,6.33-2.02,12.64-2.71,19-.33,3.05-.57,6.11-.65,9.18-.04,1.57-.04,3.15.01,4.72.02.78.08,1.55.11,2.33,0,.15-.06.68.02.73l.44-.44c.97.04,1.2-.02.69-.19l1.1.64.07.15c-1.74-2.7-6.07-.19-4.32,2.52s5.71,1.97,6.72-.99c.45-1.31.25-2.69.19-4.04-.06-1.49-.08-2.99-.06-4.49.09-5.85.77-11.67,1.62-17.45,1.73-11.82,3.9-23.57,3.54-35.57s-2.37-24.32-3.91-36.39c-1.56-12.17-3-24.36-3.74-36.62-.82-13.65-.72-27.36,1.09-40.93.18-1.34-1.28-2.5-2.5-2.5-1.5,0-2.32,1.16-2.5,2.5h0Z"/>
                <g>
                  <g>
                    <path class="cls-1" d="M10.07,4.19l.16-.22-.9.9c-.17.13-.74.07-.95-.06-.88-.53-.25-.62-.36-.2-.12.47-.03,1.2-.06,1.68-.09,1.56-.18,3.12-.27,4.68-.16,2.79-.32,5.58-.48,8.37-.33,5.74-.64,11.48-.99,17.22s-.76,11.46-1.39,17.16-1.56,11.21-2.45,16.8-1.77,11.42-2.14,17.18-.27,11.54.08,17.3.97,11.52,1.62,17.27,1.35,11.46,2.44,17.13c1.16,6.06,3.18,11.97,3.86,18.12s.81,12.93,1.13,19.38c.16,3.2,5.16,3.22,5,0-.3-5.98-.44-12-.99-17.97s-2.2-11.66-3.49-17.51-2.09-11.76-2.78-17.7-1.35-11.97-1.75-17.99-.52-12.2-.11-18.29,1.32-11.72,2.26-17.54,1.91-12.07,2.53-18.15,1-12.09,1.36-18.15c.39-6.73.77-13.45,1.16-20.18.1-1.72.2-3.45.3-5.17.09-1.59.37-3.3.03-4.87C12.14-.1,7.9-1.26,5.75,1.67c-.8,1.09-.18,2.79.9,3.42,1.27.74,2.62.2,3.42-.9h0Z"/>
                    <path class="cls-1" d="M18.12,18.09c11.88-9.12,27.64-5.76,41.12-3.16,7.98,1.54,15.98,2.57,24.12,2.78s16.19-.22,24.25-.9c16.31-1.37,32.54-3.64,48.93-4.03s32.63.56,48.93,1.22c16.33.66,32.73,1.05,49.03-.49,2.03-.19,4.05-.41,6.07-.66,1.34-.17,2.5-1.03,2.5-2.5,0-1.22-1.15-2.67-2.5-2.5-16.33,2.02-32.81,1.95-49.23,1.38s-32.93-1.64-49.42-1.52-32.8,2.09-49.2,3.65-32.69,2.32-48.86-.62c-14.47-2.63-30.13-6.73-44.03.36-1.49.76-2.9,1.66-4.22,2.68-1.07.82-1.64,2.15-.9,3.42.62,1.05,2.34,1.72,3.42.9h0Z"/>
                  </g>
                  <path class="cls-1" d="M18.96,185.49c15.11-4.27,30.94-2.82,46.42-2.63,16,.2,31.9-1.51,47.81-3.02,15.86-1.5,31.85-2.77,47.77-1.43,15.48,1.3,30.45,5.64,45.72,8.22,8.46,1.43,16.96,2.25,25.54,1.97,7.76-.26,16.18-1.14,23.45,2.23,1.22.57,2.69.35,3.42-.9.63-1.08.33-2.85-.9-3.42-6.8-3.15-14.21-3.33-21.58-3.07s-15.26.25-22.92-.76c-15.57-2.05-30.71-6.56-46.29-8.58s-32.32-1.22-48.41.21c-16.11,1.43-32.2,3.41-48.4,3.57-15.77.15-31.68-1.64-47.29,1.43-1.91.38-3.8.83-5.67,1.36-3.09.87-1.78,5.7,1.33,4.82h0Z"/>
                </g>
              </g>
              <path class="cls-1" d="M34.34,127.63c-4.55,1.07-7.22-4.83-8.67-8.08-1.85-4.17-3.08-8.65-3.79-13.15-1.45-9.09-.5-18.56,2.48-27.24,5.83-16.97,22.07-33.77,41.48-28.56,10.25,2.75,18.38,10.07,25.59,17.52,3.46,3.57,6.75,7.35,9.11,11.75,2.49,4.64,3.44,9.81,3.63,15.03s-.16,10.95-.65,16.38-1.29,10.61-2.71,15.76c-2.49,9.01-7.13,17.55-14.62,23.36-3.35,2.6-7.23,4.51-11.38,5.42-5.35,1.18-11.04.63-16.44.22-2.57-.2-5.13-.52-7.58-1.37-2.32-.8-4.33-2.25-6.14-3.87-3.64-3.26-7.25-6.88-10-10.92-1.35-1.98-2.5-4.07-3.27-6.34-.44-1.28-1.72-2.12-3.08-1.75-1.24.34-2.19,1.79-1.75,3.08,1.81,5.29,5.1,9.77,8.88,13.83s7.91,8.42,13.21,10.49c2.82,1.11,5.85,1.52,8.85,1.78s5.86.43,8.79.5c5.69.12,11.19-.68,16.39-3.08,9.02-4.17,15.94-12.41,19.89-21.39,4.81-10.93,6.06-22.93,6.56-34.75.25-5.98.19-12.1-1.42-17.9s-4.57-10.37-8.19-14.75-7.58-8.31-11.78-11.98-9.07-7.25-14.36-9.6-11.14-3.8-17-3.38c-5.2.37-10.21,2.06-14.7,4.69-8.89,5.21-15.75,13.7-19.94,23.03s-6.11,19.81-5.3,30.08c.4,5.12,1.4,10.21,3.11,15.07s3.93,10.54,8.41,13.51c2.28,1.52,5.07,2.06,7.74,1.43,3.13-.74,1.81-5.56-1.33-4.82h0Z"/>
            </g>
            <path class="cls-1" d="M55.78,83.05c5.37,3.48,10.15,7.73,14.84,12.07,2.46,2.28,4.92,4.58,7.37,6.87,1.26,1.17,2.51,2.34,3.77,3.52.6.56,1.2,1.11,1.8,1.67.18.17.65.76.88.88.37.2-.54.77.18-.48-1.61,2.79,2.71,5.31,4.32,2.52,2.19-3.8-2.3-6.89-4.71-9.14-2.91-2.72-5.82-5.43-8.73-8.15-5.42-5.05-10.94-10.05-17.18-14.09-2.71-1.75-5.22,2.57-2.52,4.32h0Z"/>
          </g>
        </g>
        <path class="cls-1" d="M53.36,134.01c10.63-6.99,20.97-14.41,31.02-22.21,1.07-.83.87-2.66,0-3.54-1.05-1.05-2.47-.83-3.54,0-9.71,7.54-19.73,14.68-30.01,21.43-2.68,1.76-.18,6.09,2.52,4.32h0Z"/>
      </g>
      <path class="cls-1" d="M129.27,85.39c4.28-1.59,8.5-3.32,12.66-5.2,1.98-.89,3.95-1.82,5.89-2.79s5.01-2.04,4.69-4.69c-.16-1.34-1.04-2.5-2.5-2.5-1.23,0-2.66,1.15-2.5,2.5.79-.99.9-1.29.33-.91-.24.12-.48.25-.73.37-.36.18-.73.37-1.09.55-.85.43-1.7.84-2.56,1.26-1.71.82-3.44,1.62-5.18,2.39-3.4,1.51-6.86,2.9-10.35,4.2-1.26.47-2.13,1.69-1.75,3.08.33,1.22,1.8,2.22,3.08,1.75h0Z"/>
      <path class="cls-1" d="M142.7,64.55c-.04,4.32-.87,8.61-2.54,12.61s-4.54,7.73-7.16,11.38c-1.36,1.89-1.37,4.51.87,5.75,1.89,1.04,4.09.41,6.04-.08,4.59-1.15,9.03-2.88,13.23-5.05l-3.03-3.93c-.22.21-.44.41-.66.62-2.35,2.21,1.19,5.74,3.54,3.54.22-.21.44-.41.66-.62,2.14-2.01-.58-5.19-3.03-3.93-3.49,1.8-7.14,3.23-10.93,4.26-1,.27-2.09.64-3.12.76.31-.03-.55.04-.5,0,.44-.33.65,1.68.91,1.69s1.58-2.17,1.82-2.49c.58-.79,1.16-1.59,1.72-2.4,4.55-6.54,7.12-14.12,7.19-22.11.03-3.22-4.97-3.22-5,0h0Z"/>
      <path class="cls-1" d="M125.73,102.07c-1.48.57-2.75,1.47-3.39,2.97-.81,1.88.53,4.33,2.82,3.67,5.7-1.64,11.34-3.51,16.89-5.62,2.79-1.06,5.56-2.19,8.3-3.36,2.36-1,6.72-2.24,4.99-5.69-.66-1.31-2.25-1.4-3.42-.9l-.1.04c-1.24.54-1.52,2.36-.9,3.42.75,1.28,2.18,1.43,3.42.9l.1-.04-3.42-.9.05.09-.34-1.26v-.32c.22-.37.43-.74.65-1.1-.1.09-1.1.39-1.37.5-.58.25-1.16.51-1.74.76-1.11.48-2.23.94-3.35,1.39-2.27.92-4.56,1.8-6.87,2.64-4.68,1.71-9.43,3.25-14.22,4.63l2.82,3.67c.09-.21.18-.59.41-.67,1.26-.48,2.13-1.68,1.75-3.08-.33-1.21-1.81-2.23-3.08-1.75h0Z"/>
      <path class="cls-1" d="M148.21,79.8l-.16-.19.64,1.1v.18h-5c.27,9.13.03,18.26-.73,27.36-.11,1.35,1.23,2.5,2.5,2.5,1.45,0,2.39-1.15,2.5-2.5.75-9.1.99-18.23.73-27.36-.09-3.21-4.98-3.23-5,0,0,.97.35,1.72.98,2.45.89,1.02,2.63.91,3.54,0,1.01-1.01.89-2.51,0-3.54h0Z"/>
      <path class="cls-1" d="M118.53,78.99c.67.57.18,2.87.21,3.8.06,2.05.37,4.1.76,6.1.75,3.85,1.97,7.63,2.49,11.52.22,1.65.34,3.41-.16,5.01-.45,1.45-1.57,2.5-2.74,3.42-3.01,2.38-6.48,4.25-10.01,5.74-1.13.48-1.47,2.11-1.02,3.12.5,1.14,1.72,1.77,2.95,1.45l-.92-.24c2.29,2.26,5.83-1.27,3.54-3.54-1.08-1.07-2.48-1.43-3.94-1.05l1.93,4.57c4.09-1.73,8.07-3.99,11.45-6.87s4.45-6.89,3.98-11.21-1.85-8.83-2.72-13.26c-.43-2.19-.65-4.37-.57-6.61.07-1.98-.06-4.12-1.69-5.5-1.03-.87-2.53-1.01-3.54,0-.9.9-1.03,2.66,0,3.54h0Z"/>
      <path class="cls-1" d="M116.6,107.26c-.37.17,0,.11.26.2.43.15.87.26,1.3.39,1.09.34,2.18.67,3.27,1.01,2.02.63,4.04,1.26,6.06,1.91,4.04,1.28,8.07,2.59,12.09,3.91,7.97,2.63,15.9,5.35,23.81,8.16,4.53,1.61,9.05,3.25,13.55,4.91,1.02.38,2.3-.25,2.82-1.15.6-1.03.31-2.16-.39-3.03-.57-.71-1.14-1.41-1.71-2.12-.85-1.05-2.65-.88-3.54,0-1.04,1.04-.85,2.48,0,3.54.57.71,1.14,1.41,1.71,2.12l2.43-4.18c-16.5-6.1-33.15-11.81-49.92-17.13-2.41-.76-4.82-1.52-7.23-2.26s-4.61-1.7-7.05-.59c-1.23.56-1.53,2.34-.9,3.42.74,1.26,2.19,1.46,3.42.9h0Z"/>
      <path class="cls-1" d="M180.54,85.84c6.35-.94,12.62-2.15,18.8-3.89l-1.93-4.57c-.56.26-1.07.66-1.45,1.15-.83,1.06-1.04,2.5,0,3.54.87.87,2.7,1.07,3.54,0,.09-.14.2-.26.33-.37-.17.15-.13.15.12,0,1.11-.53,1.48-2.07,1.02-3.12-.49-1.12-1.73-1.79-2.95-1.45-6.18,1.74-12.45,2.96-18.8,3.89-1.34.2-2.07,1.89-1.75,3.08.39,1.43,1.73,1.94,3.08,1.75h0Z"/>
      <path class="cls-1" d="M174.48,97.03c-1.62.62-2.56,2.36-1.57,3.98,1.11,1.81,3.05,1.21,4.65.63,3.17-1.15,6.33-2.29,9.5-3.44s6.18-2.24,9.27-3.36c2.48-.9,5.75-1.69,6.9-4.37.53-1.24.37-2.68-.9-3.42-1.05-.62-2.89-.35-3.42.9-.57,1.33-2.88,1.7-4.14,2.16-2.24.81-4.48,1.62-6.72,2.43s-4.48,1.62-6.72,2.43-4.44,1.81-6.71,2.41h1.33l-.21-.04,1.49,1.15-.07-.13.25,1.93.03-.14-1.75,1.75.11-.04c1.26-.48,2.13-1.68,1.75-3.08-.33-1.21-1.81-2.23-3.08-1.75h0Z"/>
      <path class="cls-1" d="M190.77,70.41h.13c.82-.05,1.8-.44,2.16-1.25.49-1.09.52-2.22-.26-3.19-.99-1.24-2.84-1.45-4.02-.33-1.91,1.82-.49,4.82,0,6.97,1.11,4.83,2,9.72,2.62,14.64s1,9.84,1.14,14.78c.07,2.55.08,5.1.03,7.66-.03,1.64.23,3.95-.63,5.45-.68,1.18-2.14.67-3.05-.12-1.63-1.42-1.92-4.14-2.29-6.13-.24-1.33-1.85-2.08-3.08-1.75-1.4.38-1.99,1.74-1.75,3.08.79,4.28,2.28,8.77,6.83,10.25,2.03.66,4.32.38,6.01-.94,1.78-1.39,2.47-3.49,2.73-5.65.57-4.74.3-9.72.08-14.47-.23-5.09-.73-10.15-1.44-15.19-.4-2.84-.88-5.67-1.44-8.49-.26-1.33-.55-2.66-.85-3.98-.16-.7-.32-1.4-.49-2.1-.07-.31-.15-.62-.23-.93l-.12-.46c-.12-.62-.16-.62-.11,0l-.64,1.1.19-.19-1.77.73.16-.02-1.26-.34.13.09-.9-.9-.14-.29.25-1.93-.05.11,2.16-1.24h-.13c-3.2.17-3.22,5.17,0,5.01h0Z"/>
      <path class="cls-1" d="M208.42,67.69c-.42.75-.89,1.47-1.42,2.16l.39-.51c-.88,1.13-1.89,2.14-3.01,3.02l.51-.39c-.36.28-.72.54-1.1.78-1.05.69-1.52,1.94-1.02,3.12.2.48.55.95,1.02,1.2.63.33,1.23.37,1.93.25,1.44-.25,2.81-.75,4.12-1.39s2.43-1.55,3.55-2.49l-.51.39.09-.06-.6.25.1-.03h-1.33l.1.02-1.1-.64.04.04-.64-1.1v.05c.01-.44.01-.89.01-1.33v.05c.07-.2.16-.4.24-.6l-.03.05.39-.51-.04.03,1.1-.64h-.04c.81.22,1.62.43,2.43.65l-.04-.03c-.52-.43-1.07-.73-1.77-.73-.61,0-1.35.27-1.77.73s-.76,1.1-.73,1.77c.03.63.23,1.35.73,1.77.69.58,1.55.95,2.47.67.56-.17,1.02-.48,1.37-.93.79-1.02.75-2.55-.21-3.47-.59-.56-1.4-.81-2.2-.71-.64.09-1.13.36-1.63.77-.29.24-.57.5-.87.73l.51-.39c-.88.68-1.83,1.23-2.85,1.67l.6-.25c-.92.38-1.87.66-2.85.83l1.93,4.57c2.65-1.75,4.88-4.08,6.43-6.86.64-1.14.31-2.78-.9-3.42s-2.74-.32-3.42.9h0Z"/>
      <path class="cls-1" d="M208.82,73.21c-.68,1.57-1.36,3.14-2.03,4.71-.81,1.9-.66,4.39,1.73,5.03,2.02.54,3.65-1.21,5.12-2.31.72-.54,1.44-1.09,2.16-1.63.53-.4,1.39-1.3,1.96-1.44h-1.33l-.5-.35-.64-1.1c.14.39.16.22.05-.52.13-.22.12-.2-.02.06-.17.27-.37.53-.56.78-.47.6-.96,1.18-1.47,1.76-1.1,1.26-2.25,2.46-3.39,3.68-2.44,2.6-4.88,5.2-7.32,7.8-1.35,1.45-.51,4.49,1.77,4.27,2.07-.2,3.82-1.09,5.69-1.95,1.64-.76,3.28-1.52,4.93-2.27,3.4-1.57,6.8-3.14,10.21-4.71l-3.67-2.82c-.25,1.07-.65,1.89-1.4,2.68-2.22,2.33,1.31,5.87,3.54,3.54,1.31-1.37,2.26-3.03,2.69-4.88.53-2.25-1.71-3.73-3.67-2.82-3.17,1.46-6.33,2.92-9.5,4.39-1.53.7-3.05,1.41-4.58,2.11-1.28.59-2.79,1.61-4.22,1.75l1.77,4.27c2.17-2.32,4.35-4.64,6.52-6.95s4.31-4.53,6.21-7.01c.91-1.19,1.71-2.51,1.36-4.09-.4-1.83-2.28-2.9-4.08-2.33-1.45.46-2.74,1.78-3.93,2.69-.67.5-1.34,1.01-2,1.51-.31.23-.62.47-.93.7-.15.12-.31.23-.46.35-.26.19-.31.22-.15.09h1.33l-.25-.06,1.1.64c.14,1.59.29,2.03.45,1.3-.08.17-.04.07.12-.28.19-.45.39-.9.58-1.35l1.16-2.69c.53-1.24.37-2.68-.9-3.42-1.05-.62-2.88-.35-3.42.9h0Z"/>
      <path class="cls-1" d="M198.15,105.18l-.07-.09c-.9-1.18-2.04-1.49-3.42-.9-.66.29-1.18,1-1.32,1.7-.21,1.06.13,2.28,1.15,2.82,1.73.92,3.7-.01,5.47-.46s3.59-.88,5.39-1.29c3.53-.79,7.08-1.47,10.65-2.05s7.03-1.03,10.56-1.39c1.76-.18,3.83-.24,4.4-2.31.67-2.44-2.02-3.87-4-2.89-.94.46-1.48,1.84-1.15,2.82l.03.09c1.02,3.03,5.85,1.73,4.82-1.33l-.03-.09-1.15,2.82.12-.06-1.26.34h.15c-.72-.4-1.44-.81-2.16-1.23l.06.11v-2.52l-.1.19.9-.9c.46-.23.24-.11-.15-.1-.32.01-.64.06-.96.1-.72.07-1.44.15-2.16.24-1.42.16-2.84.35-4.25.54-2.71.37-5.4.79-8.09,1.27s-5.21.99-7.79,1.57c-1.33.3-2.66.61-3.99.94-1.23.3-2.59.88-3.82,1.04l1.26.34-.22-.12,1.15,2.82.03-.14-1.15,1.49.14-.06-3.42-.9.07.09c.82,1.07,2.15,1.64,3.42.9,1.05-.62,1.72-2.34.9-3.42h0Z"/>
      <path class="cls-1" d="M217.62,93.46l.69-.91-4.57-1.93c-.75,3.29-1.93,6.41-3.61,9.34-.83,1.45-1.75,2.86-2.8,4.17-1.14,1.43-2.68,2.73-2.11,4.77.63,2.3,2.98,2.57,4.96,2.39,1.63-.15,3.22.13,4.73.74,3.31,1.33,5.88,3.99,8.3,6.51,1.41,1.47,3.53.57,4.18-1.1.54-1.39.07-3.05-1.02-4.04-2.38-2.16-5.92,1.36-3.54,3.54-.02-.3-.11-.58-.26-.83l4.18-1.1c-2.44-2.54-5.02-5.09-8.16-6.75-1.5-.79-3.13-1.44-4.8-1.74-.91-.16-1.84-.28-2.77-.27s-1.75.24-2.63.13l1.26.34.14.25.34,1.26c-.43.74-.5.92-.21.55.14-.16.28-.32.41-.48.27-.32.54-.65.8-.98.52-.66,1.03-1.33,1.52-2.02.93-1.32,1.76-2.69,2.5-4.12,1.52-2.92,2.67-6.04,3.41-9.25.28-1.21-.27-2.48-1.45-2.95-1.25-.5-2.34,0-3.12,1.02l-.69.91c-.82,1.08-.17,2.8.9,3.42,1.28.75,2.6.18,3.42-.9h0Z"/>
      <path class="cls-1" d="M220.69,94.86c-3,14.78-16.42,23.5-29.24,29.26-1.23.55-1.53,2.34-.9,3.42.74,1.27,2.18,1.45,3.42.9,13.97-6.28,28.3-16.24,31.54-32.25.27-1.32-.38-2.7-1.75-3.08-1.23-.34-2.81.42-3.08,1.75h0Z"/>
    </g>
  </g>
</svg>